<svg xmlns="http://www.w3.org/2000/svg" height="512" width="512"><path d="M115.486 181.321a7.502 7.502 0 007.502 7.502h237.014a7.502 7.502 0 100-15.004H122.988a7.5 7.5 0 00-7.502 7.502zm7.502 67.021h237.014a7.502 7.502 0 100-15.004H122.988c-4.144 0-7.502 3.359-7.502 7.502s3.358 7.502 7.502 7.502zm0 59.52h237.014a7.502 7.502 0 100-15.004H122.988c-4.144 0-7.502 3.359-7.502 7.502s3.358 7.502 7.502 7.502zm0 59.519h118.507a7.502 7.502 0 100-15.004H122.988c-4.144 0-7.502 3.359-7.502 7.502s3.358 7.502 7.502 7.502zm241.828-258.832c7.182 0 13.026-5.843 13.026-13.026V55.561c0-7.183-5.844-13.026-13.026-13.026H257.008c-7.182 0-13.026 5.843-13.026 13.026v39.962c0 7.183 5.844 13.026 13.026 13.026zM258.987 57.54h103.849v36.004H258.987z" data-original="#000000" class="active-path" data-old_color="#000000" fill="#EF4242"/><path d="M430.182 44.787h-11.856V29.133C418.326 13.069 405.256 0 389.193 0H150.434c-7.782 0-15.099 3.03-20.6 8.533L61.218 77.149c-5.504 5.502-8.534 12.819-8.534 20.6v66.073a7.502 7.502 0 0015.004 0V97.749c0-.49.027-.976.076-1.457h56.479c13.637 0 24.732-11.095 24.732-24.732V15.081c.481-.049.967-.076 1.458-.076h238.759c7.791 0 14.129 6.338 14.129 14.129v313.2a7.502 7.502 0 0015.004 0V59.792h11.856c7.791 0 14.129 6.338 14.129 14.129v408.946c0 7.791-6.338 14.129-14.129 14.129H122.807c-7.791 0-14.129-6.338-14.129-14.129v-15.654h280.514c16.064 0 29.133-13.069 29.133-29.133v-60.665a7.502 7.502 0 00-15.004 0v60.665c0 7.791-6.338 14.129-14.129 14.129H81.818c-7.791 0-14.129-6.338-14.129-14.129V198.896a7.502 7.502 0 00-15.004 0V438.08c0 16.064 13.07 29.133 29.133 29.133h11.856v15.654c0 16.064 13.07 29.133 29.133 29.133h307.375c16.064 0 29.133-13.069 29.133-29.133V73.92c.001-16.064-13.069-29.133-29.133-29.133zm-305.938 36.5H78.3l55.671-55.672V71.56c0 5.363-4.364 9.727-9.727 9.727z" data-original="#000000" class="active-path" data-old_color="#000000" fill="#EF4242"/></svg>