<svg xmlns="http://www.w3.org/2000/svg" width="512" height="512"><path d="M300.142 384.543c11.927-15.091 14.175-36.549 3.987-54.195l-31.517-54.588c-6.458-11.185-16.884-19.186-29.359-22.527-12.475-3.343-25.505-1.628-36.688 4.831l-13.115 7.57a4.993 4.993 0 01-3.813.502 4.998 4.998 0 01-3.051-2.341l-60.344-104.518a5.032 5.032 0 011.84-6.865l13.114-7.57c23.087-13.331 31.027-42.96 17.697-66.048l-31.517-54.588C120.918 13.02 110.492 5.02 98.018 1.678 85.545-1.664 72.515.048 61.329 6.507 32.98 22.873 12.701 49.301 4.229 80.921c-8.472 31.62-4.125 64.645 12.243 92.995l102.55 177.622c16.368 28.349 42.796 48.629 74.415 57.101 10.558 2.829 21.273 4.229 31.919 4.229 9.956 0 19.849-1.24 29.498-3.665l7.445 12.897c3.19 5.524 8.996 8.615 14.959 8.615 2.216 0 4.453-.429 6.586-1.317.799 2.14.137 4.061-.269 4.917-.523 1.106-2.136 3.681-5.811 3.681H226.52c-5.523 0-9.999 4.478-9.999 9.999s4.477 9.999 9.999 9.999h51.244c10.324 0 19.479-5.799 23.891-15.133 3.599-7.614 3.374-16.172-.386-23.397 3.649-2.321 6.272-5.856 7.398-10.059a17.121 17.121 0 00-1.723-13.081l-6.802-11.781zm-21.905 25.168l-4.104-7.108a123.99 123.99 0 0010.376-5.139l3.735 6.47-10.007 5.777zm-1.801-30.634c-23.723 13.695-51.36 17.336-77.82 10.245-26.459-7.091-48.575-24.06-62.272-47.784L33.791 163.917c-13.696-23.722-17.335-51.359-10.245-77.82s24.059-48.576 47.783-62.272c4.369-2.522 9.216-3.811 14.13-3.811 2.463 0 4.942.324 7.384.979 7.315 1.96 13.429 6.651 17.216 13.21l31.517 54.588c6.839 11.845 4.13 26.627-5.723 35.375l-39.544-68.49c-2.761-4.783-8.877-6.422-13.659-3.66-4.783 2.762-6.422 8.876-3.66 13.659l39.832 68.991-.738.426c-11.949 6.899-16.059 22.233-9.159 34.184l60.344 104.518c3.342 5.789 8.738 9.929 15.195 11.659 5.526 1.479 11.259 1.038 16.426-1.214l38.026 65.863a9.995 9.995 0 0013.659 3.66c4.783-2.762 6.422-8.876 3.66-13.659l-37.904-65.651c6.143-3.003 13.08-3.69 19.75-1.903 7.315 1.96 13.429 6.651 17.216 13.21l31.517 54.588c7.815 13.539 3.161 30.914-10.378 38.73zm-83.344 61.847c-1.86-1.861-4.44-2.93-7.07-2.93s-5.21 1.07-7.069 2.93a10.076 10.076 0 00-2.93 7.07c0 2.639 1.07 5.21 2.93 7.069a10.033 10.033 0 007.069 2.931c2.629 0 5.21-1.061 7.07-2.931a10.054 10.054 0 002.93-7.069c0-2.631-1.07-5.209-2.93-7.07zm292.91-174.285c-14.335 0-25.998 11.662-25.998 25.998s11.663 25.998 25.998 25.998S512 306.973 512 292.637s-11.663-25.998-25.998-25.998zm0 31.998c-3.309 0-6-2.691-6-6s2.691-6 6-6 6 2.691 6 6a6.007 6.007 0 01-6 6zm-136.014-31.998c-14.335 0-25.998 11.662-25.998 25.998s11.662 25.998 25.998 25.998c14.335 0 25.998-11.662 25.998-25.998s-11.663-25.998-25.998-25.998zm0 31.998c-3.309 0-6-2.691-6-6s2.691-6 6-6 6 2.691 6 6-2.691 6-6 6zm68.02-31.998c-14.335 0-25.998 11.662-25.998 25.998s11.663 25.998 25.998 25.998 25.998-11.662 25.998-25.998-11.663-25.998-25.998-25.998zm0 31.998c-3.309 0-6-2.691-6-6s2.691-6 6-6 6 2.691 6 6a6.007 6.007 0 01-6 6z" data-original="#000000" class="active-path" data-old_color="#000000" fill="#EF4242"/><path d="M502.001 491.992H91.03c-9.373 0-16.999-7.625-16.999-16.999s7.625-16.999 16.999-16.999h56.496c5.523 0 9.999-4.478 9.999-9.999s-4.477-9.999-9.999-9.999H91.03c-20.401 0-36.997 16.598-36.997 36.997 0 20.4 16.597 36.997 36.997 36.997h410.971c5.523 0 9.999-4.478 9.999-9.999 0-5.521-4.477-9.999-9.999-9.999zM157.717 311.629l-38.72-66.329c-2.784-4.77-8.906-6.38-13.677-3.595-4.77 2.784-6.379 8.906-3.595 13.676l38.72 66.329a9.998 9.998 0 0013.677 3.595c4.77-2.784 6.379-8.906 3.595-13.676zm-58.382-100.44c-3.905-3.904-10.236-3.904-14.142 0l-.779.779c-3.905 3.905-3.905 10.236 0 14.142a9.972 9.972 0 007.07 2.929 9.967 9.967 0 007.07-2.929l.779-.779c3.907-3.906 3.907-10.237.002-14.142z" data-original="#000000" class="active-path" data-old_color="#000000" fill="#EF4242"/></svg>