<svg xmlns="http://www.w3.org/2000/svg" width="512" height="512"><path d="M378.428 378.734c-2.938-.42-5.917-.826-8.929-1.218-5.583-.723-10.702 3.215-11.428 8.801-.725 5.586 3.216 10.702 8.801 11.428 2.925.379 5.815.773 8.667 1.182.49.069.977.104 1.457.104 4.992 0 9.356-3.671 10.084-8.756.798-5.575-3.076-10.742-8.652-11.541z" data-original="#000000" class="active-path" data-old_color="#000000" fill="#EF4242"/><path d="M417.637 385.688c-5.503-1.192-10.935 2.305-12.127 7.81-1.192 5.505 2.304 10.935 7.81 12.127 59.758 12.941 75.548 29 75.548 35.684 0 6.346-13.365 20.411-63.456 32.877-45.128 11.231-105.293 17.416-169.412 17.416s-124.284-6.185-169.412-17.416c-50.091-12.466-63.456-26.531-63.456-32.877 0-6.147 11.115-16.971 42.441-27.246 30.127-9.882 73.029-17.202 121.065-20.678 33.405 34.926 62.064 55.259 63.492 56.265a10.187 10.187 0 005.87 1.858 10.19 10.19 0 005.87-1.858c1.706-1.2 42.258-29.964 83.351-78.252 24.228-28.47 43.559-57.826 57.455-87.251 17.538-37.139 26.431-74.498 26.431-111.039C429.107 77.656 351.451 0 256 0S82.893 77.656 82.893 173.107c0 36.541 8.893 73.899 26.431 111.039 13.896 29.426 33.227 58.781 57.455 87.251.842.989 1.684 1.958 2.525 2.931-43.609 3.971-81.386 10.937-110.088 20.352-37.48 12.293-56.483 27.982-56.483 46.629 0 21.916 26.556 39.637 78.929 52.672C128.354 505.601 190.268 512 256 512s127.646-6.399 174.338-18.019c52.373-13.035 78.929-30.756 78.929-52.672 0-23.741-30.828-42.455-91.63-55.621zM103.291 173.107c0-84.204 68.505-152.709 152.709-152.709s152.709 68.505 152.709 152.709c0 76.048-42.796 142.41-78.699 184.69-30.531 35.954-61.434 61.13-74.014 70.793-12.524-9.612-43.193-34.583-73.683-70.412-36.049-42.362-79.022-108.855-79.022-185.071z" data-original="#000000" class="active-path" data-old_color="#000000" fill="#EF4242"/><path d="M256 91.388c-45.06 0-81.72 36.659-81.72 81.72s36.66 81.719 81.72 81.719 81.72-36.659 81.72-81.72S301.06 91.388 256 91.388zm0 143.041c-33.812 0-61.322-27.508-61.322-61.322 0-33.813 27.509-61.321 61.322-61.321 33.812 0 61.322 27.508 61.322 61.322 0 33.813-27.51 61.321-61.322 61.321z" data-original="#000000" class="active-path" data-old_color="#000000" fill="#EF4242"/></svg>