<svg xmlns="http://www.w3.org/2000/svg" width="512" height="512"><path d="M512 264.538c0-7.399-2.869-14.343-8.078-19.552L353.879 94.945l-.034-.036-.013-.012-24.62-24.62c-5.208-5.209-12.151-8.078-19.55-8.078-7.398 0-14.342 2.869-19.551 8.077L8.077 352.312C2.869 357.521 0 364.463 0 371.862s2.869 14.342 8.077 19.549l64.643 64.643H10.002c-5.523 0-10 4.478-10 10s4.477 10 10 10h426.45c5.522 0 10-4.478 10-10s-4.478-10-10-10H331.957l171.964-171.965c5.21-5.208 8.079-12.151 8.079-19.551zM366.538 149.329a52.29 52.29 0 002.44-11.001l113.869 113.868-146.156 8.208 29.847-111.075zM46.918 401.822a9.896 9.896 0 00-1.017-.872l-23.683-23.683c-1.431-1.43-2.219-3.35-2.219-5.405 0-2.057.788-3.978 2.22-5.408L304.254 84.42c1.431-1.431 3.352-2.22 5.408-2.22 2.056 0 3.976.788 5.406 2.22l24.663 24.662c8.972 8.995 11.956 22.038 7.788 34.052a9.97 9.97 0 00-.212.69l-51.342 191.291c-3.069 11.365-12.072 20.242-23.494 23.17l-.105.027-193.805 52.016c-11.252 3.002-23.378-.258-31.643-8.506zm149.925 54.227h-95.842l-24.962-24.962a52.294 52.294 0 007.687-1.439l116.765-31.37-3.648 57.771zm106.833.001h-86.792l3.993-63.234 56.614-15.171c18.367-4.727 32.841-19.02 37.787-37.333l15.964-59.569 96.602-5.426-18.239 18.238c-3.906 3.904-3.906 10.236-.001 14.142a9.968 9.968 0 007.071 2.929 9.968 9.968 0 007.07-2.929l34.066-34.063 29.963-1.683L303.676 456.05z" data-original="#000000" class="active-path" data-old_color="#000000" fill="#EF4242"/><path d="M102.395 328.702c-3.906-3.905-10.236-3.905-14.143 0L52.164 364.79c-3.905 3.905-3.905 10.237 0 14.143a9.968 9.968 0 007.072 2.929 9.968 9.968 0 007.071-2.929l36.088-36.088c3.905-3.905 3.905-10.237 0-14.143zm13.247-3.24c2.56 0 5.118-.976 7.071-2.929l.169-.169c3.905-3.905 3.905-10.237 0-14.143-3.906-3.905-10.236-3.905-14.143 0l-.169.169c-3.905 3.905-3.905 10.237 0 14.143a9.969 9.969 0 007.072 2.929zm273.645-11.597l-.169.169c-3.905 3.905-3.905 10.237 0 14.143a9.973 9.973 0 007.072 2.929 9.972 9.972 0 007.071-2.929l.169-.169c3.905-3.905 3.905-10.237 0-14.143-3.906-3.905-10.236-3.905-14.143 0zM366.232 74.869a9.968 9.968 0 007.071-2.929l18.923-18.923c3.905-3.905 3.905-10.237 0-14.143-3.906-3.905-10.236-3.905-14.143 0L359.16 57.798c-3.905 3.905-3.905 10.237 0 14.143a9.972 9.972 0 007.072 2.928zm56.565 56.57c2.56 0 5.118-.976 7.071-2.929l37.848-37.848c3.905-3.905 3.905-10.237 0-14.143-3.906-3.905-10.236-3.905-14.142 0l-37.848 37.848c-3.905 3.905-3.905 10.237 0 14.143a9.966 9.966 0 007.071 2.929zm49.496 53.636c1.952 1.953 4.512 2.929 7.071 2.929s5.118-.976 7.07-2.929l18.925-18.923c3.906-3.905 3.906-10.236.001-14.142-3.903-3.904-10.236-3.906-14.142 0l-18.925 18.923c-3.905 3.905-3.905 10.236 0 14.142z" data-original="#000000" class="active-path" data-old_color="#000000" fill="#EF4242"/></svg>