<svg width="512" viewBox="0 0 512 512" xmlns="http://www.w3.org/2000/svg"><g fill="#EF4242"><path d="M484.582 319.536c-26.98-11.333-51.265-27.472-72.175-47.954-12.721-12.472-34.628-12.472-47.391 0-6.171 6.046-12.721 11.588-19.462 16.863-10.022-4.112-66.687-17.029-73.118-19.023-12.745-3.964-23.117-13.665-28.077-25.858 39.327-17.106 60.172-61.317 63.494-105.77v-6.657h16.715a9.112 9.112 0 009.114-9.114 9.112 9.112 0 00-9.114-9.114h-11.392l-1.264-12.816c-2.985-30.166-23.692-55.217-52.755-63.833l-16.614-4.925v-6.218a9.112 9.112 0 00-9.114-9.114h-51.871c-5.026 0-9.102 4.07-9.114 9.09l-.012 6.183-16.994 5.043c-28.944 8.58-49.634 33.524-52.719 63.524l-1.347 13.066h-11.16c-5.032 0-9.114 4.082-9.114 9.114 0 5.032 4.082 9.114 9.114 9.114h17.148l.012 7.346c3.287 43.647 23.894 87.483 62.77 104.78-4.907 12.454-14.798 22.162-27.828 26.185-11.072 3.418-54.054 12.828-54.054 12.828h-.012c-5.939 1.317-58.196 14.051-64.224 56.273-3.637 25.395-7.88 49.497-7.886 49.545a9.134 9.134 0 001.994 7.441 9.113 9.113 0 006.984 3.252h279.23c10.336 20.672 22.791 40.265 37.411 58.54l20.951 26.179c6.349 7.939 15.831 12.496 26.001 12.496 10.176 0 19.652-4.557 26.007-12.496l20.963-26.202c27.466-34.343 47.521-73.196 59.602-115.478 2.592-9.07-2.012-18.647-10.699-22.29zM327.321 301.32c-10.947 6.96-22.399 13.143-34.491 18.216-3.459 1.46-6.028 4.017-7.992 6.948l8.111-33.032c.853.202 31.482 7.008 34.372 7.868zM253.977 53.727c21.924 6.503 37.541 25.407 39.796 48.168l1.092 11.013h-52.322V50.339l11.434 3.388zM224.315 34.23v78.678h-33.833l.172-78.678h33.661zm-103.462 67.487c2.326-22.642 17.937-41.451 39.772-47.931l11.766-3.489-.136 62.61h-52.553l1.151-11.19zm4.723 36.076v-6.657h164.061l.012 5.969c-3.584 47.658-30.344 95.731-82.048 95.731s-78.465-48.074-82.025-95.043zm82.024 113.27c6.847 0 13.267-.777 19.397-2.029a62.398 62.398 0 0015.107 22.969l-34.26 27.822-34.812-28.119a62.08 62.08 0 0014.745-22.743c6.254 1.305 12.816 2.1 19.823 2.1zm-85.709 42.395l22.168 87.098H86.308v-78.868c3.252-1.003 27.436-6.349 35.583-8.23zm-79.829 47.676c2.189-15.308 14.264-25.473 26.018-31.863v71.285H35.915c1.59-9.553 3.987-24.316 6.147-39.422zm120.806 39.422l-23.271-91.429c2.99-.783 14.863-4.794 18.044-6.408l44.495 35.927a9.128 9.128 0 005.726 2.017c2.035 0 4.07-.676 5.744-2.041l43.961-35.696c3.032 1.507 14.65 5.394 17.676 6.183l-22.446 91.447h-89.929zm108.696 0s10.277-39.772 10.579-38.722c3.792 13.273 8.461 26.161 13.801 38.722h-24.38zm149.88 65.351l-20.963 26.202c-5.75 7.191-17.789 7.191-23.544 0l-20.945-26.179c-25.953-32.432-44.905-69.149-56.095-109.592 39.603-16.09 70.383-44.394 77.883-51.74a15.541 15.541 0 0110.941-4.474c4.106 0 7.986 1.59 10.924 4.474 22.571 22.096 48.767 39.505 78.103 52.227-11.412 39.945-30.357 76.638-56.304 109.082z"/><path d="M359.658 370.338a9.111 9.111 0 00-12.888 0 9.111 9.111 0 000 12.888l24.535 24.529a10.688 10.688 0 007.642 3.18c2.89 0 5.601-1.127 7.619-3.157l50.286-50.292a9.111 9.111 0 000-12.888c-3.554-3.56-9.327-3.56-12.888 0l-45.017 45.023-19.289-19.283z"/></g></svg>