<svg xmlns="http://www.w3.org/2000/svg" height="512" width="512"><path d="M120.418 111.219h143.629c7.124 0 12.919-5.795 12.919-12.919V81.859c0-7.124-5.795-12.92-12.919-12.92H120.418c-7.124 0-12.92 5.796-12.92 12.92V98.3c0 7.124 5.796 12.919 12.92 12.919zm2.09-27.27h139.448v12.26H122.508zm-15.01 80.236c0 7.124 5.796 12.919 12.92 12.919h143.629c7.124 0 12.919-5.795 12.919-12.919v-16.442c0-7.124-5.795-12.919-12.919-12.919H120.418c-7.124 0-12.92 5.795-12.92 12.919zm15.01-14.352h139.448v12.26H122.508zm120.759 126.643h20.85c6.831 0 12.387-5.557 12.387-12.388v-17.077c0-6.831-5.557-12.387-12.387-12.387h-20.85c-6.831 0-12.387 5.556-12.387 12.387v17.077c-.001 6.831 5.556 12.388 12.387 12.388zm2.622-26.841h15.605v11.832h-15.605zm94.537-2.623c0-6.831-5.557-12.387-12.387-12.387H307.19c-6.831 0-12.387 5.556-12.387 12.387v17.077c0 6.831 5.557 12.388 12.387 12.388h20.849c6.831 0 12.387-5.557 12.387-12.388zm-15.009 14.454h-15.605v-11.832h15.605zm79.099-14.454c0-6.831-5.557-12.387-12.387-12.387h-20.85c-6.831 0-12.387 5.556-12.387 12.387v17.077c0 6.831 5.557 12.388 12.387 12.388h20.85c6.831 0 12.387-5.557 12.387-12.388zm-15.01 14.454h-15.605v-11.832h15.605zm-158.627 75.67c0 6.831 5.557 12.387 12.387 12.387h20.85c6.831 0 12.387-5.556 12.387-12.387v-17.077c0-6.831-5.557-12.388-12.387-12.388h-20.85c-6.831 0-12.387 5.557-12.387 12.388zm15.01-14.455h15.605v11.832h-15.605zm82.15 26.842c6.831 0 12.387-5.556 12.387-12.387v-17.077c0-6.831-5.557-12.388-12.387-12.388H307.19c-6.831 0-12.387 5.557-12.387 12.388v17.077c0 6.831 5.557 12.387 12.387 12.387zm-18.227-26.842h15.605v11.832h-15.605zm-78.933 87.501c0 6.831 5.557 12.388 12.387 12.388h47.294c6.831 0 12.387-5.557 12.387-12.388v-17.077c0-6.831-5.557-12.387-12.387-12.387h-47.294c-6.831 0-12.387 5.556-12.387 12.387zm15.01-14.454h42.049v11.832h-42.049zm146.239-88.057h-20.85c-6.831 0-12.387 5.557-12.387 12.388v17.077c0 6.831 5.557 12.387 12.387 12.387h20.85c6.831 0 12.387-5.556 12.387-12.387v-17.077c.001-6.83-5.556-12.388-12.387-12.388zm-2.622 26.842h-15.605v-11.832h15.605z" data-original="#000000" class="active-path" data-old_color="#000000" fill="#EF4242"/><path d="M493.101 462.831c.264-15.281-9.793-27.903-23.622-31.671-3.778-13.792-16.268-23.6-31.099-23.6h-1.244v-98.309a7.505 7.505 0 10-15.01 0v152.771h-19.779v-67.14c0-7.81-6.354-14.163-14.164-14.163h-55.43c-7.81 0-14.164 6.354-14.164 14.163v67.14H213.102v-251.21c0-3.74 3.032-6.909 6.908-6.909h195.209c3.809 0 6.908 3.1 6.908 6.909v63.353a7.505 7.505 0 1015.01 0v-63.353c0-12.086-9.833-21.919-21.918-21.919H309.601v-138c0-10.6-7.565-19.466-17.58-21.485v-13.52c0-8.76-7.127-15.888-15.887-15.888H108.331C99.57 0 92.443 7.128 92.443 15.888V29.41c-10.015 2.019-17.58 10.885-17.58 21.485v21.624a7.505 7.505 0 1015.01 0V50.894a6.916 6.916 0 016.908-6.908h190.902a6.916 6.916 0 016.908 6.908v138H220.01c-8.353 0-15.74 4.715-19.426 11.814h-80.166c-7.122 0-12.92 5.793-12.92 12.919v16.441c0 7.124 5.796 12.92 12.92 12.92h77.674v23.605h-77.674c-7.124 0-12.92 5.795-12.92 12.919v16.441c0 7.124 5.796 12.92 12.92 12.92h77.674v23.604h-77.674c-7.124 0-12.92 5.796-12.92 12.92v16.44c0 7.124 5.796 12.92 12.92 12.92h77.674v23.605h-77.674c-7.124 0-12.92 5.795-12.92 12.919v16.441c0 7.124 5.796 12.92 12.92 12.92h77.674v21.382H89.873V107.571a7.505 7.505 0 10-15.01 0V407.56H73.62c-14.83 0-27.32 9.808-31.099 23.6-13.821 3.765-23.887 16.382-23.622 31.671C8.166 465.634.221 475.412.221 487.011.221 500.79 11.431 512 25.21 512h461.58c13.779 0 24.989-11.21 24.989-24.989 0-11.599-7.944-21.376-18.678-24.18zM108.331 15.01h167.803a.88.88 0 01.878.878v13.089H107.453V15.888a.88.88 0 01.878-.878zm14.177 212.968v-12.26h75.584v12.26zm0 65.884v-12.26h75.584v12.26zm0 65.884v-12.26h75.584v12.26zm0 65.885v-12.26h75.584v12.26zm314.629-3.061h1.244c8.853 0 16.402 6.897 17.186 15.703a7.506 7.506 0 006.819 6.811c8.735.766 15.585 8.184 15.714 16.939h-40.964V422.57zM333.6 395.728h53.738v66.294H333.6zM49.614 445.084a7.507 7.507 0 006.819-6.811c.784-8.806 8.334-15.703 17.186-15.703h1.244v39.452H33.9c.129-8.755 6.979-16.173 15.714-16.938zM486.79 496.99H25.21c-5.503 0-9.979-4.477-9.979-9.979s4.477-9.979 9.979-9.979h461.581c5.503 0 9.979 4.477 9.979 9.979s-4.477 9.979-9.98 9.979z" data-original="#000000" class="active-path" data-old_color="#000000" fill="#EF4242"/></svg>