<svg xmlns="http://www.w3.org/2000/svg" width="204" height="204" viewBox="0 0 28 32" fill="#fff" stroke="#fff" stroke-width="1.148"><path d="M21.5 0H7.685a.5.5 0 00-.337.131l-.086.078c-.144.07-.284.157-.41.281L4.364 2.857.163 6.694A.5.5 0 000 7.063V25.5c0 .827.673 1.5 1.5 1.5h20c.827 0 1.5-.673 1.5-1.5v-24c0-.827-.673-1.5-1.5-1.5zM1.463 6.996l3.584-3.41L7.802 1.07c.06-.019.12-.039.198-.049V7H1.459l.004-.004zM22 25.5a.5.5 0 01-.5.5h-20a.5.5 0 01-.5-.5V8h7.5a.5.5 0 00.5-.5V1h12.5a.5.5 0 01.5.5v24z"/><path d="M26.5 31h-20a.5.5 0 01-.5-.5v-.604a.5.5 0 00-1 0v.604c0 .827.673 1.5 1.5 1.5h20c.827 0 1.5-.673 1.5-1.5v-24c0-.827-.673-1.5-1.5-1.5h-.792a.5.5 0 000 1h.792a.5.5 0 01.5.5v24a.5.5 0 01-.5.5zM18 11H5a.5.5 0 000 1h13a.5.5 0 000-1z"/><path d="M18 15H5a.5.5 0 000 1h13a.5.5 0 000-1zm0 4H5a.5.5 0 000 1h13a.5.5 0 000-1z"/></svg>