<svg xmlns="http://www.w3.org/2000/svg" height="512" width="512"><path d="M243.84 444.905H33.344c-10.085 0-18.289-8.204-18.289-18.289l.001-289.973h93.345c4.158 0 7.528-3.37 7.528-7.528s-3.37-7.528-7.528-7.528H15.056v-38.82c0-10.084 8.204-18.288 18.288-18.288h19.768v4.712c0 16.969 13.806 30.773 30.774 30.773s30.774-13.805 30.774-30.773v-4.712h228.259v4.712c0 16.969 13.806 30.773 30.774 30.773s30.774-13.805 30.774-30.773v-4.712h19.545c10.084 0 18.288 8.204 18.288 18.288v38.82H143.53c-4.158 0-7.528 3.37-7.528 7.528s3.37 7.528 7.528 7.528h298.772v81.129c0 4.158 3.37 7.528 7.528 7.528s7.528-3.37 7.528-7.528V82.768c0-18.386-14.957-33.343-33.343-33.343H404.47v-4.712c0-16.969-13.806-30.773-30.774-30.773s-30.774 13.805-30.774 30.773v4.712H114.661v-4.712c0-16.969-13.806-30.773-30.774-30.773S53.113 27.745 53.113 44.713v4.712H33.344C14.958 49.425.001 64.382.001 82.768L0 426.616c0 18.386 14.958 33.344 33.344 33.344H243.84a7.527 7.527 0 100-15.055zM357.976 44.713c0-8.667 7.051-15.718 15.719-15.718s15.719 7.051 15.719 15.718v24.479c0 8.667-7.051 15.718-15.719 15.718s-15.719-7.051-15.719-15.718zm-289.808 0c0-8.667 7.051-15.718 15.719-15.718s15.719 7.051 15.719 15.718v24.479c0 8.667-7.051 15.718-15.719 15.718s-15.719-7.051-15.719-15.718z" data-original="#000000" class="active-path" data-old_color="#000000" fill="#EF4242"/><path d="M454.219 247.178c-14.093-10.115-29.717-17.358-46.215-21.572V194.42c0-9.73-7.916-17.646-17.646-17.646H67.001c-9.73 0-17.647 7.916-17.647 17.646v187.858c0 9.73 7.917 17.646 17.647 17.646h174.141c6.543 21.634 18.382 41.443 34.865 57.845 26.112 25.982 60.776 40.291 97.607 40.291C449.92 498.06 512 435.98 512 359.673c0-44.473-21.6-86.527-57.781-112.495zM339.285 191.83h51.073a2.594 2.594 0 012.591 2.591v28.225a140.082 140.082 0 00-19.335-1.36 138.128 138.128 0 00-34.329 4.312zm-68.719 0h53.663v36.968h-53.663zm0 52.024h27.394a139.452 139.452 0 00-27.394 23.555zm-68.718-52.024h53.663v36.968h-53.663zm0 52.024h53.663v36.968h-53.663zm-83.775 141.015H67.001a2.594 2.594 0 01-2.592-2.591V347.9h53.664zm0-52.024H64.409v-36.968h53.664zm0-52.023H64.409v-36.968h53.664zm0-52.024H64.409V194.42a2.594 2.594 0 012.592-2.591h51.073v36.969zm68.719 156.071h-53.663v-36.968h53.663zm0-52.024h-53.663v-36.968h53.663zm0-52.023h-53.663v-36.968h53.663zm0-52.024h-53.663V191.83h53.663zm15.056 156.071v-36.968h33.884a139.326 139.326 0 00-.506 11.772c0 8.545.778 16.968 2.283 25.196zm35.997-52.024h-35.998v-36.968h48.989a137.37 137.37 0 00-12.991 36.968zm135.769 150.16c-32.824 0-63.717-12.752-86.988-35.908-23.437-23.321-36.344-54.369-36.344-87.424 0-68.005 55.327-123.332 123.332-123.332 25.962 0 50.799 7.977 71.827 23.068 32.251 23.148 51.504 60.629 51.504 100.264 0 68.005-55.326 123.332-123.331 123.332z" data-original="#000000" class="active-path" data-old_color="#000000" fill="#EF4242"/><path d="M373.614 251.279c-.001 0-.001 0 0 0h-.001c-59.766.001-108.393 48.645-108.393 108.394 0 59.768 48.648 108.392 108.393 108.393h.001c59.766 0 108.393-48.646 108.393-108.393 0-59.765-48.644-108.394-108.393-108.394zm71.074 168.823l-3.313-3.313a7.528 7.528 0 00-10.646-.001 7.527 7.527 0 00-.001 10.646l3.314 3.314c-14.502 12.349-32.814 20.348-52.902 21.959v-.02c0-4.158-3.37-7.528-7.528-7.528s-7.528 3.37-7.528 7.528v.02c-20.087-1.611-38.398-9.611-52.901-21.959l3.314-3.314a7.527 7.527 0 00-.001-10.646 7.528 7.528 0 00-10.646.001l-3.313 3.313c-12.349-14.502-20.348-32.813-21.959-52.901h.02c4.158 0 7.528-3.37 7.528-7.528s-3.37-7.528-7.528-7.528h-.02c1.611-20.088 9.611-38.399 21.959-52.901l3.313 3.313a7.528 7.528 0 0010.646.001 7.527 7.527 0 00.001-10.646l-3.314-3.314c14.502-12.349 32.813-20.349 52.901-21.96v.021c0 4.158 3.37 7.528 7.528 7.528s7.528-3.37 7.528-7.528v-.021c20.088 1.611 38.4 9.611 52.902 21.96l-3.314 3.315a7.527 7.527 0 00.001 10.646 7.528 7.528 0 0010.646-.001l3.313-3.313c12.348 14.502 20.348 32.813 21.959 52.901h-.02c-4.158 0-7.528 3.37-7.528 7.528s3.37 7.528 7.528 7.528h.02c-1.611 20.086-9.611 38.397-21.959 52.9z" data-original="#000000" class="active-path" data-old_color="#000000" fill="#EF4242"/><path d="M381.14 337.066v-35.204c0-4.158-3.37-7.528-7.528-7.528s-7.528 3.37-7.528 7.528v35.204c-9.461 3.159-16.303 12.096-16.303 22.606 0 6.62 2.716 12.617 7.089 16.94l-8.195 16.627a7.527 7.527 0 003.425 10.08 7.527 7.527 0 0010.08-3.425l8.19-16.618c1.061.145 2.141.226 3.241.226 13.141 0 23.832-10.691 23.832-23.831.002-10.509-6.841-19.446-16.303-22.605zm-7.527 31.382c-4.839 0-8.775-3.936-8.775-8.775s3.936-8.776 8.775-8.776 8.776 3.937 8.776 8.776-3.937 8.775-8.776 8.775z" data-original="#000000" class="active-path" data-old_color="#000000" fill="#EF4242"/></svg>