<svg width="512" viewBox="0 0 511.998 511.998" xmlns="http://www.w3.org/2000/svg"><g fill="#EF4242"><path d="M510.915 168.428l-48.118-94.824V35.998c0-5.522-4.476-10-10-10H59.198c-5.522 0-10 4.478-10 10v37.611L1.082 168.428A10.007 10.007 0 000 172.953v24.601c0 29.232 21.304 53.568 49.198 58.337v210.105H38.965c-5.523 0-10 4.478-10 10s4.477 10 10 10h20.156c.025 0 .051.004.077.004h413.834c5.522 0 10-4.478 10-10s-4.478-10-10-10h-10.233V255.891c27.895-4.769 49.199-29.104 49.199-58.337v-24.601a9.995 9.995 0 00-1.083-4.525zM69.198 45.998h373.599v20.003H69.198V45.998zm245.949 125.945l-8.721-85.942h60.246l26.927 88.44v23.113c0 21.614-17.585 39.198-39.2 39.198-21.615 0-39.201-17.584-39.201-39.198v-24.601c0-.337-.017-.674-.051-1.01zm-19.949 1.516v24.095h-.001c0 21.614-17.584 39.198-39.197 39.198-21.615 0-39.201-17.584-39.201-39.198v-24.095l8.878-87.458h60.646l8.875 87.458zm-89.623-87.457l-8.724 85.942a9.713 9.713 0 00-.052 1.009v24.601c0 21.614-17.584 39.198-39.199 39.198s-39.199-17.584-39.199-39.198v-23.112l26.928-88.44h60.246zM20 197.554v-22.209l45.338-89.344h59.083L98.834 170.04a10.017 10.017 0 00-.434 2.913v24.601c0 21.614-17.586 39.198-39.202 39.198-21.614 0-39.198-17.584-39.198-39.198zM402.799 466h-60.001v-70.002h10.001c5.523 0 10-4.477 10-10 0-5.522-4.477-10-10-10h-10.001V306h60.001v160zm39.998 0h-20V296c0-5.522-4.477-10-10-10H99.199c-5.524 0-10 4.478-10 10v139.998c0 5.523 4.476 10 10 10h223.599V466h-253.6V255.891c16.294-2.785 30.339-12.238 39.202-25.455 10.632 15.855 28.715 26.316 49.199 26.316s38.566-10.461 49.199-26.316c10.633 15.855 28.717 26.316 49.201 26.316 20.482 0 38.566-10.46 49.197-26.316 10.633 15.856 28.717 26.316 49.201 26.316s38.568-10.461 49.2-26.316c8.862 13.217 22.907 22.67 39.2 25.455V466zM206.73 306h34.84l-19.015 19.012c-3.905 3.904-3.905 10.236-.001 14.142a9.97 9.97 0 007.072 2.93 9.97 9.97 0 007.07-2.929L269.855 306h52.942v119.998H109.199v-22.467L206.73 306zm-97.531 69.246V306h69.246l-69.246 69.246zm382.799-177.692c0 21.614-17.585 39.198-39.199 39.198-21.615 0-39.2-17.584-39.2-39.198v-24.601c0-.987-.146-1.969-.434-2.913l-25.587-84.039h59.082l45.338 89.344v22.209z"/><path d="M209.143 362.566c2.55 0 5.1-.969 7.051-2.908l.167-.166c3.917-3.893 3.935-10.225.042-14.142-3.895-3.917-10.227-3.936-14.143-.041l-.167.166c-3.917 3.893-3.934 10.226-.042 14.142a9.969 9.969 0 007.092 2.949zM10.236 465.996H10c-5.523 0-10 4.478-10 10s4.477 10 10 10h.236c5.522 0 10-4.478 10-10s-4.477-10-10-10zm491.762.004h-.236c-5.523 0-10 4.478-10 10s4.477 10 10 10h.236c5.523 0 10-4.478 10-10s-4.477-10-10-10z"/></g></svg>