<svg xmlns="http://www.w3.org/2000/svg" height="512" width="512"><path d="M192.285 256.45H91.456c-4.143 0-7.5 3.358-7.5 7.5s3.357 7.5 7.5 7.5h100.829c4.143 0 7.5-3.358 7.5-7.5s-3.357-7.5-7.5-7.5zm0 65.414H91.456c-4.143 0-7.5 3.358-7.5 7.5s3.357 7.5 7.5 7.5h100.829c4.143 0 7.5-3.358 7.5-7.5s-3.357-7.5-7.5-7.5zm0 65.415H91.456c-4.143 0-7.5 3.358-7.5 7.5s3.357 7.5 7.5 7.5h100.829c4.143 0 7.5-3.358 7.5-7.5s-3.357-7.5-7.5-7.5zm84.111-74.758h15.918c4.143 0 7.5-3.358 7.5-7.5s-3.357-7.5-7.5-7.5h-15.918a7.5 7.5 0 000 15zm64.274-15h-15.918c-4.143 0-7.5 3.358-7.5 7.5s3.357 7.5 7.5 7.5h15.918a7.5 7.5 0 000-15zm48.355 0h-15.918c-4.143 0-7.5 3.358-7.5 7.5s3.357 7.5 7.5 7.5h15.918c4.143 0 7.5-3.358 7.5-7.5s-3.357-7.5-7.5-7.5zm48.356 0h-15.917c-4.143 0-7.5 3.358-7.5 7.5s3.357 7.5 7.5 7.5h15.917a7.5 7.5 0 000-15zm-160.985 54h15.918c4.143 0 7.5-3.358 7.5-7.5s-3.357-7.5-7.5-7.5h-15.918a7.5 7.5 0 000 15zm64.274-15h-15.918c-4.143 0-7.5 3.358-7.5 7.5s3.357 7.5 7.5 7.5h15.918a7.5 7.5 0 000-15zm48.355 0h-15.918c-4.143 0-7.5 3.358-7.5 7.5s3.357 7.5 7.5 7.5h15.918c4.143 0 7.5-3.358 7.5-7.5s-3.357-7.5-7.5-7.5zm48.356 0h-15.917c-4.143 0-7.5 3.358-7.5 7.5s3.357 7.5 7.5 7.5h15.917a7.5 7.5 0 000-15zm-160.985 54h15.918c4.143 0 7.5-3.358 7.5-7.5s-3.357-7.5-7.5-7.5h-15.918a7.5 7.5 0 000 15zm64.274-15h-15.918c-4.143 0-7.5 3.358-7.5 7.5s3.357 7.5 7.5 7.5h15.918a7.5 7.5 0 000-15zm48.355 0h-15.918c-4.143 0-7.5 3.358-7.5 7.5s3.357 7.5 7.5 7.5h15.918c4.143 0 7.5-3.358 7.5-7.5s-3.357-7.5-7.5-7.5zm48.356 0h-15.917c-4.143 0-7.5 3.358-7.5 7.5s3.357 7.5 7.5 7.5h15.917a7.5 7.5 0 000-15zM107.999 181.762a7.501 7.501 0 00-10.382 2.17 7.499 7.499 0 002.171 10.382c10.978 7.182 18.39 9.167 28.228 9.619v10.096c0 4.142 3.357 7.5 7.5 7.5s7.5-3.358 7.5-7.5v-10.657c19.037-3.367 30.153-18.894 32.59-33.391 3.083-18.337-6.516-34.282-24.454-40.623a341.035 341.035 0 01-8.136-2.985V84.43c7.299 1.428 11.67 5.165 12.02 5.472a7.5 7.5 0 0010.126-11.066c-.48-.443-8.707-7.842-22.146-9.594v-9.033c0-4.142-3.357-7.5-7.5-7.5s-7.5 3.358-7.5 7.5v9.61c-1.476.301-2.987.68-4.531 1.145-11.772 3.546-20.57 13.631-22.962 26.32-2.174 11.538 1.5 22.647 9.591 28.993 4.49 3.521 10.115 6.745 17.902 10.173v52.48c-7.293-.396-12.002-1.925-20.017-7.168zm35.017-39.384c1.021.37 2.063.744 3.137 1.123 16.374 5.788 15.361 19.828 14.661 23.994-1.417 8.43-7.473 17.412-17.798 20.465zm-23.646-27.905c-3.667-2.875-5.24-8.398-4.106-14.412 1.058-5.615 4.91-12.435 12.547-14.736.069-.021.136-.037.205-.057v34.585c-3.533-1.821-6.358-3.585-8.646-5.38z" data-original="#000000" class="active-path" data-old_color="#000000" fill="#EF4242"/><path d="M420.97 467.864a7.5 7.5 0 00-7.5 7.5v5.363c0 8.973-7.3 16.273-16.273 16.273H59.375c-8.974 0-16.273-7.3-16.273-16.273V31.273C43.102 22.3 50.401 15 59.375 15h262.408c.793 0 1.574.077 2.348.19v62.713c0 14.577 11.859 26.436 26.436 26.436h62.713c.113.774.19 1.554.19 2.347v35.804c0 4.142 3.357 7.5 7.5 7.5s7.5-3.358 7.5-7.5v-35.804c0-8.573-4.105-17.081-9.001-21.947L343.897 9.16l-.171-.169-.02-.019-.004-.004-.062-.06A31.292 31.292 0 00321.783 0H59.375C42.131 0 28.102 14.029 28.102 31.273v449.453c0 17.244 14.029 31.273 31.273 31.273h337.821c17.244 0 31.273-14.029 31.273-31.273v-5.363a7.498 7.498 0 00-7.499-7.499zM339.131 25.608l63.732 63.731h-52.297c-6.306 0-11.436-5.13-11.436-11.436V25.608z" data-original="#000000" class="active-path" data-old_color="#000000" fill="#EF4242"/><path d="M457.862 170.178H255.916c-14.356 0-26.037 11.68-26.037 26.037v25.231c0 4.142 3.357 7.5 7.5 7.5s7.5-3.358 7.5-7.5v-25.231c0-6.085 4.951-11.037 11.037-11.037h201.946c6.085 0 11.036 4.951 11.036 11.037v225.593c0 6.085-4.951 11.037-11.036 11.037H255.916c-6.086 0-11.037-4.951-11.037-11.037V256.509c0-4.142-3.357-7.5-7.5-7.5s-7.5 3.358-7.5 7.5v165.299c0 14.356 11.681 26.037 26.037 26.037h201.946c14.356 0 26.036-11.68 26.036-26.037V196.214c0-14.356-11.679-26.036-26.036-26.036z" data-original="#000000" class="active-path" data-old_color="#000000" fill="#EF4242"/><path d="M444.881 219.798c0-7.316-5.952-13.268-13.268-13.268H282.165c-7.316 0-13.269 5.952-13.269 13.268v38.384c0 7.316 5.952 13.268 13.269 13.268h149.448c7.315 0 13.268-5.952 13.268-13.268zm-15 36.652H283.896v-34.92H429.88v34.92z" data-original="#000000" class="active-path" data-old_color="#000000" fill="#EF4242"/></svg>