<svg viewBox="0 0 20.615 20.635" width="512" xmlns="http://www.w3.org/2000/svg"><g data-name="Layer 2"><path class="cls-1" d="M19.96 16.855l-6.116-6.144 5.3-5.3a.309.309 0 00.08-.136L20.591.413a.312.312 0 00-.385-.386L15.338 1.4a.313.313 0 00-.136.08L9.918 6.768 8.078 4.92A4.112 4.112 0 002.7.256a.312.312 0 00-.114.514L5.2 3.4 3.364 5.241.752 2.617a.315.315 0 00-.516.115A4.087 4.087 0 001.412 7.2l-.936.94a.311.311 0 000 .441 3.03 3.03 0 004.589-.447L6.8 9.883 2.19 14.5c-.155-.18-.4-.408-.626-.184s0 .471.184.625L.411 16.278a1.419 1.419 0 000 2l1.939 1.93a1.417 1.417 0 002 0l1.336-1.335c.15.179.391.377.606.164s.013-.462-.165-.606l4.6-4.6 6.121 6.148a2.2 2.2 0 003.112-3.124zM18.763 4.6L16.02 1.859 19.839.78zM.689 3.438l2.235 2.246-1.08 1.084a3.5 3.5 0 01-1.155-3.33zm4.6 4.036c-.345-.342-.738.358-1.109.669a2.308 2.308 0 01-3.026.205l4.709-4.731a.313.313 0 000-.441L3.405.707a3.485 3.485 0 014.041 4.184.314.314 0 00.065.345L9.476 7.21 7.245 9.442zm10.134-5.329L16.73 3.45 3.938 16.244l-1.307-1.3zM3.908 19.766a.791.791 0 01-1.117 0L.853 17.834a.792.792 0 010-1.115L2.19 15.38l3.054 3.05zm1.777-1.777l-1.3-1.3L17.172 3.892l1.3 1.3zm13.832 1.545a1.575 1.575 0 01-2.224 0l-6.122-6.149 2.229-2.232 6.117 6.147a1.588 1.588 0 010 2.234z" fill="#EF4242" data-name="Layer 1"/></g></svg>