<svg xmlns="http://www.w3.org/2000/svg" width="512" height="512" viewBox="0 0 64 64"><g xmlns="http://www.w3.org/2000/svg" fill="#ef4242"><path d="M4.028 59.004c-.553 0-1.005-.447-1.005-1s.442-1 .994-1h.011a1 1 0 110 2zm56.974-10.535a1 1 0 01-.502-1.865 3.01 3.01 0 001.5-2.6c0-1.654-1.346-3-3-3a1 1 0 110-2c2.757 0 5 2.243 5 5a5.017 5.017 0 01-2.498 4.33.99.99 0 01-.5.135z" data-original="#000000"/><path d="M34.001 63.004a1 1 0 01-.475-1.88l27-14.535a1 1 0 11.947 1.761l-27 14.535a.99.99 0 01-.472.119z" data-original="#000000"/><path d="M34.001 63.004c-.045 0-.09-.003-.136-.009l-21.999-3a1 1 0 11.27-1.982l21.999 3a1 1 0 01-.134 1.991z" data-original="#000000"/><path d="M12.001 61.004H9.008a1 1 0 110-2h1.993V36.006H9.008a1 1 0 110-2h2.993a1 1 0 011 1v24.998a1 1 0 01-1 1zm26.998-17a1 1 0 01-.149-1.989l19.317-2.939a1 1 0 11.301 1.977L39.15 43.992a.96.96 0 01-.151.012z" data-original="#000000"/><path d="M35 48.004a1 1 0 110-2c1.654 0 3-1.346 3-3a2.988 2.988 0 00-2.483-2.954 1 1 0 11.34-1.97A4.98 4.98 0 0140 43.004c0 2.757-2.243 5-5 5z" data-original="#000000"/><path d="M35.688 40.064a.969.969 0 01-.192-.019l-15.688-3.061a1 1 0 01-.79-1.173.995.995 0 011.173-.79l15.688 3.061a1 1 0 01-.191 1.982z" data-original="#000000"/><path d="M20 37.004h-7.999a1 1 0 110-2H20a1 1 0 110 2zm14.58 10.978l-.078-.003L21.923 47a1 1 0 01-.92-1.074.994.994 0 011.074-.92l12.579.979a1 1 0 01-.076 1.997zm23.735-6.919a.998.998 0 01-.983-.826.998.998 0 01.811-1.158c.278-.05.566-.074.857-.074a1 1 0 110 2c-.174 0-.345.015-.51.043-.058.01-.117.015-.175.015z" data-original="#000000"/><path d="M35 48.004c-.175 0-.348-.01-.518-.026a1 1 0 01-.896-1.094 1.01 1.01 0 011.094-.896c.105.011.212.017.32.017a1 1 0 110 1.999zM9.001 63.005H1a1 1 0 110-2h7.001V34.006H1a1 1 0 110-2h8.001a1 1 0 011 1v28.999a1 1 0 01-1 1zM30 38.955a1 1 0 01-1-1V9.994a1 1 0 112 0v27.961a1 1 0 01-1 1zm14 4.285a1 1 0 01-1-1V9.994a1 1 0 112 0V42.24a1 1 0 01-1 1z" data-original="#000000"/><path d="M44 10.994H30a1 1 0 110-2h14a1 1 0 110 2zm-9 25.998a1 1 0 01-1-1V14.994a1 1 0 112 0v20.998a1 1 0 01-1 1zm4 0a1 1 0 01-1-1V14.994a1 1 0 112 0v20.998a1 1 0 01-1 1z" data-original="#000000"/><path d="M34 10.994a1 1 0 01-1-1v-4a1 1 0 112 0v4a1 1 0 01-1 1z" data-original="#000000"/><path d="M40 6.994h-6a1 1 0 110-2h6a1 1 0 110 2z" data-original="#000000"/><path d="M40 10.994a1 1 0 01-1-1v-4a1 1 0 112 0v4a1 1 0 01-1 1zm-3-4a1 1 0 01-1-1V1.996a1 1 0 112 0v3.998a1 1 0 01-1 1zm6.996 36.246a1 1 0 01-1-1V20.994a1 1 0 112 0V42.24a1 1 0 01-1 1z" data-original="#000000"/><path d="M53.996 21.994h-10a1 1 0 110-2h10a1 1 0 110 2z" data-original="#000000"/><path d="M53.996 41.721a1 1 0 01-1-1V20.994a1 1 0 112 0v19.727a1 1 0 01-1 1zm-3-15.727h-4a1 1 0 110-2h4a1 1 0 110 2zm0 4h-4a1 1 0 110-2h4a1 1 0 110 2zm0 4h-4a1 1 0 110-2h4a1 1 0 110 2zm0 4h-4a1 1 0 110-2h4a1 1 0 110 2zm-20.992-16h-10a1 1 0 110-2h10a1 1 0 110 2z" data-original="#000000"/><path d="M20.003 37.004a1 1 0 01-1-1v-15.01a1 1 0 112 0v15.01a1 1 0 01-1 1zm7.001-11.01h-4a1 1 0 110-2h4a1 1 0 110 2zm0 4h-4a1 1 0 110-2h4a1 1 0 110 2zm0 4h-4a1 1 0 110-2h4a1 1 0 110 2z" data-original="#000000"/></g></svg>