<svg xmlns="http://www.w3.org/2000/svg" width="512" height="512" viewBox="0 0 682.667 682"><path xmlns="http://www.w3.org/2000/svg" d="M620.68 104.012h-49.24a9.347 9.347 0 00-9.351 9.347 9.347 9.347 0 009.351 9.352h49.239a.62.62 0 01.617.625v497.277h-94.152V303.805c0-8.594-6.989-15.586-15.582-15.586h-2.481V122.71h19.723a9.35 9.35 0 100-18.7h-19.723V79.938c0-3.398-1.82-6.367-4.531-8.003L443.44 5.3A15.636 15.636 0 00431.992.25c-4.332.05-8.523 1.816-11.48 5.004C408.754 17.02 397.848 29.785 386.559 42c-7.633 8.262-15.27 16.516-22.903 24.777-1.894 2.051-3.953 4.035-5.726 6.2-3.602 4.402-3.051 10.09-3.051 15.539v199.707h-2.488c-8.594 0-15.579 6.988-15.579 15.582v326.164c0 5.16 4.184 9.343 9.352 9.343h284.484c5.168 0 9.352-4.183 9.352-9.343V123.336c0-10.66-8.668-19.324-19.32-19.324zM431.95 20.437l45.988 50.149h-92.344zM373.573 89.29h116.809v198.934H373.574zm83.438 531.324h-44.164V564.5h44.164zm51.433 0H475.71v-59.23c0-8.594-6.992-15.586-15.586-15.586h-50.398c-8.594 0-15.582 6.992-15.582 15.586v59.23h-38.637V306.922h152.937zm0 0" fill="#ef4242" data-original="#000000"/><path xmlns="http://www.w3.org/2000/svg" d="M584.531 160.02h-26.18c-5.163 0-9.351-4.184-9.351-9.348a9.35 9.35 0 019.352-9.352h26.18c5.16 0 9.35 4.184 9.35 9.352 0 5.164-4.19 9.348-9.35 9.348zm0 59.734h-26.18a9.352 9.352 0 010-18.703h26.18c5.16 0 9.352 4.183 9.352 9.351 0 5.164-4.192 9.352-9.352 9.352zm0 59.73h-26.18a9.35 9.35 0 01-9.351-9.351c0-5.16 4.188-9.352 9.352-9.352h26.18c5.16 0 9.35 4.188 9.35 9.352a9.35 9.35 0 01-9.35 9.351zm0 59.731h-26.18a9.35 9.35 0 01-9.351-9.352c0-5.164 4.188-9.347 9.352-9.347h26.18c5.16 0 9.35 4.183 9.35 9.347 0 5.168-4.19 9.352-9.35 9.352zm0 59.73h-26.18c-5.163 0-9.351-4.183-9.351-9.347a9.352 9.352 0 019.352-9.352h26.18c5.16 0 9.35 4.184 9.35 9.352 0 5.164-4.19 9.347-9.35 9.347zm0 59.735h-26.18a9.352 9.352 0 010-18.703h26.18c5.16 0 9.352 4.191 9.352 9.351 0 5.164-4.192 9.352-9.352 9.352zm0 59.73h-26.18c-5.163 0-9.351-4.183-9.351-9.347s4.188-9.348 9.352-9.348h26.18c5.16 0 9.35 4.183 9.35 9.347s-4.19 9.348-9.35 9.348zM289.41 94.793h-92.87c-15.688 0-28.454-12.766-28.454-28.457s12.766-28.45 28.453-28.45c2.164 0 4.3.25 6.375.735C207.348 17.52 226.102 1.633 248.5 1.633c22.117 0 40.879 15.746 45.488 36.62 13.52 2.196 23.871 13.954 23.871 28.083 0 15.687-12.761 28.457-28.449 28.457zm-92.87-38.211c-5.384 0-9.759 4.375-9.759 9.754s4.375 9.754 9.758 9.754h92.871c5.38 0 9.754-4.375 9.754-9.754s-4.375-9.754-9.754-9.754c-.617 0-1.254.066-1.902.191a9.343 9.343 0 01-11.14-9.023c-.243-15.121-12.743-27.418-27.868-27.418-15.371 0-27.875 12.508-27.875 27.879 0 1.684.16 3.406.477 5.117a9.348 9.348 0 01-16.72 7.25c-1.874-2.539-4.73-3.996-7.843-3.996zm94.1 319.895l-86.484-15.586V316.25c0-5.164-4.191-9.348-9.351-9.348-5.164 0-9.352 4.184-9.352 9.348v41.27l-80.18-14.446a17.735 17.735 0 00-14.55 3.852 17.737 17.737 0 00-5.641 8.66H49.461a9.348 9.348 0 00-9.348 9.348c0 5.164 4.184 9.351 9.348 9.351h34.89v28.703h-34.89c-5.164 0-9.348 4.188-9.348 9.352a9.347 9.347 0 009.348 9.351h34.89v28.7h-34.89c-5.164 0-9.348 4.187-9.348 9.351a9.343 9.343 0 009.348 9.348h34.89v28.703h-34.89a9.348 9.348 0 00-9.348 9.348c0 5.164 4.184 9.351 9.348 9.351h34.89v104.121H18.704V194.66h166.75v77.75c0 5.164 4.188 9.348 9.352 9.348 5.16 0 9.343-4.184 9.343-9.348v-80.87c0-8.59-6.984-15.583-15.578-15.583h-3.773v-42.266c0-8.593-6.992-15.586-15.586-15.586h-7.082V75.633c0-8.59-6.992-15.582-15.586-15.582h-35.117V27.01c0-5.16-4.184-9.343-9.352-9.343-5.16 0-9.347 4.184-9.347 9.344V60.05H57.609c-8.593 0-15.582 6.992-15.582 15.582v42.472h-7.086c-8.593 0-15.582 6.993-15.582 15.586v42.266h-3.777C6.992 175.957 0 182.949 0 191.543v438.418a9.347 9.347 0 009.352 9.352h83.664c-.008-.008-.016-.024-.028-.036.239.016.473.036.715.036h202.203a9.347 9.347 0 009.348-9.352V393.965a17.756 17.756 0 00-14.613-17.488zM60.724 78.75h82.707v39.152H60.723zm-22.668 58.059h128.039v39.148H38.054zM233.63 620.613h-77.652v-85.965c0-20.128 16.375-36.503 36.507-36.503h4.641c20.133 0 36.504 16.378 36.504 36.503zm52.93 0h-34.23v-85.965c0-30.437-24.767-55.203-55.204-55.203h-4.64c-30.438 0-55.204 24.766-55.204 55.203v85.965h-34.23V361.672l183.508 33.07zm0 0" fill="#ef4242" data-original="#000000"/><path xmlns="http://www.w3.org/2000/svg" d="M308.938 240.012c-.833 0-1.653.043-2.47.133-4.304-14.864-18.038-25.762-34.273-25.762-16.304 0-30.238 11.183-34.398 26.289-9.965 2.46-17.375 11.476-17.375 22.191 0 12.602 10.25 22.852 22.855 22.852h65.66c12.594 0 22.852-10.25 22.852-22.852 0-12.601-10.25-22.851-22.851-22.851zm0 27.008h-65.66a4.162 4.162 0 01-4.157-4.157 4.162 4.162 0 014.156-4.156c.258 0 .528.031.817.082a9.337 9.337 0 007.68-1.906 9.36 9.36 0 003.464-7.117c.149-9.203 7.754-16.688 16.957-16.688 9.36 0 16.977 7.613 16.977 16.973 0 1.02-.102 2.07-.297 3.11a9.351 9.351 0 005.477 10.284 9.343 9.343 0 0011.242-3.027c.379-.516 1.46-1.711 3.344-1.711a4.161 4.161 0 014.152 4.156 4.161 4.161 0 01-4.152 4.157zm160.648-117.829a9.347 9.347 0 01-9.352-9.347v-15.828a9.347 9.347 0 019.352-9.352 9.35 9.35 0 019.351 9.352v15.828c-.007 5.164-4.19 9.347-9.351 9.347zm0 53.383a9.347 9.347 0 01-9.352-9.351v-15.828c0-5.16 4.184-9.352 9.352-9.352a9.35 9.35 0 019.351 9.352v15.828c-.007 5.168-4.19 9.351-9.351 9.351zm0 53.379a9.347 9.347 0 01-9.352-9.351v-15.829a9.347 9.347 0 019.352-9.351 9.35 9.35 0 019.351 9.351v15.829c-.007 5.168-4.19 9.351-9.351 9.351zm-37.609-106.762c-5.164 0-9.352-4.183-9.352-9.347v-15.828a9.35 9.35 0 019.352-9.352 9.347 9.347 0 019.351 9.352v15.828a9.347 9.347 0 01-9.351 9.347zm0 53.383a9.35 9.35 0 01-9.352-9.351v-15.828c0-5.16 4.188-9.352 9.352-9.352a9.347 9.347 0 019.351 9.352v15.828a9.347 9.347 0 01-9.351 9.351zm0 53.379a9.35 9.35 0 01-9.352-9.351v-15.829a9.35 9.35 0 019.352-9.351 9.347 9.347 0 019.351 9.351v15.829a9.347 9.347 0 01-9.351 9.351zm-37.606-106.762c-5.16 0-9.348-4.183-9.348-9.347v-15.828c0-5.168 4.188-9.352 9.348-9.352a9.347 9.347 0 019.348 9.352v15.828a9.346 9.346 0 01-9.348 9.347zm0 53.383c-5.16 0-9.348-4.183-9.348-9.351v-15.828c0-5.16 4.188-9.352 9.348-9.352a9.347 9.347 0 019.348 9.352v15.828a9.347 9.347 0 01-9.348 9.351zm0 53.379c-5.16 0-9.348-4.183-9.348-9.351v-15.829c0-5.168 4.188-9.351 9.348-9.351a9.347 9.347 0 019.348 9.351v15.829a9.347 9.347 0 01-9.348 9.351zm75.004 103.57a9.35 9.35 0 01-9.352-9.351V329.21c0-5.16 4.188-9.352 9.352-9.352s9.352 4.184 9.352 9.352v20.96a9.35 9.35 0 01-9.352 9.352zm0 58.477a9.35 9.35 0 01-9.352-9.352v-20.96c0-5.168 4.188-9.352 9.352-9.352s9.352 4.184 9.352 9.351v20.961a9.35 9.35 0 01-9.352 9.352zm0 57.266a9.35 9.35 0 01-9.352-9.352v-20.957a9.352 9.352 0 0118.704 0v20.961c0 5.164-4.188 9.348-9.352 9.348zm0 58.168a9.352 9.352 0 01-9.352-9.352v-20.96a9.352 9.352 0 0118.704 0v20.96a9.352 9.352 0 01-9.352 9.352zm-37.617-173.911c-5.16 0-9.344-4.183-9.344-9.351V329.21c0-5.16 4.184-9.352 9.344-9.352a9.35 9.35 0 019.351 9.352v20.96a9.35 9.35 0 01-9.351 9.352zm0 58.477c-5.16 0-9.344-4.184-9.344-9.352v-20.96c0-5.168 4.184-9.352 9.344-9.352a9.35 9.35 0 019.351 9.351v20.961a9.35 9.35 0 01-9.351 9.352zm0 57.266c-5.16 0-9.344-4.184-9.344-9.352v-20.957c0-5.164 4.184-9.352 9.344-9.352a9.352 9.352 0 019.351 9.352v20.961c0 5.164-4.187 9.348-9.351 9.348zm0 58.168c-5.16 0-9.344-4.188-9.344-9.352v-20.96c0-5.165 4.184-9.352 9.344-9.352a9.352 9.352 0 019.351 9.351v20.961a9.352 9.352 0 01-9.351 9.352zm-37.18-173.911a9.347 9.347 0 01-9.348-9.351V329.21a9.35 9.35 0 1118.7 0v20.96a9.347 9.347 0 01-9.352 9.352zm0 58.477a9.347 9.347 0 01-9.348-9.352v-20.96c0-5.168 4.184-9.352 9.348-9.352s9.352 4.184 9.352 9.351v20.961a9.347 9.347 0 01-9.352 9.352zm0 57.266a9.347 9.347 0 01-9.348-9.352v-20.957c0-5.164 4.184-9.352 9.348-9.352s9.352 4.188 9.352 9.352v20.961a9.347 9.347 0 01-9.352 9.348zm0 58.168c-5.164 0-9.348-4.188-9.348-9.352v-20.96c0-5.165 4.184-9.352 9.348-9.352s9.352 4.187 9.352 9.351v20.961a9.35 9.35 0 01-9.352 9.352zM151.063 423.875c-5.165 0-9.348-4.188-9.348-9.352V401.34a9.347 9.347 0 1118.695 0v13.183c0 5.164-4.183 9.352-9.347 9.352zm43.742 0a9.352 9.352 0 01-9.352-9.352V401.34c0-5.16 4.188-9.352 9.352-9.352 5.16 0 9.351 4.184 9.351 9.352v13.183c0 5.164-4.191 9.352-9.351 9.352zm43.742 0a9.352 9.352 0 01-9.352-9.352V401.34c0-5.16 4.188-9.352 9.352-9.352s9.348 4.184 9.348 9.352v13.183c0 5.164-4.184 9.352-9.348 9.352zm-87.484 50.488c-5.165 0-9.348-4.187-9.348-9.351v-13.184a9.347 9.347 0 1118.695 0v13.184c0 5.16-4.183 9.351-9.347 9.351zm43.742 0a9.352 9.352 0 01-9.352-9.351v-13.184c0-5.16 4.188-9.351 9.352-9.351 5.16 0 9.351 4.183 9.351 9.351v13.184c0 5.16-4.191 9.351-9.351 9.351zm43.742 0a9.352 9.352 0 01-9.352-9.351v-13.184c0-5.16 4.188-9.351 9.352-9.351s9.348 4.183 9.348 9.351v13.184c0 5.16-4.184 9.351-9.348 9.351zM104.34 213.387H49.46c-5.16 0-9.347 4.183-9.347 9.343 0 5.168 4.188 9.352 9.348 9.352h54.879c5.16 0 9.347-4.184 9.347-9.352 0-5.164-4.187-9.343-9.347-9.343zm50.351 0h-14.144a9.344 9.344 0 00-9.344 9.343c0 5.168 4.184 9.352 9.344 9.352h14.144c5.16 0 9.348-4.184 9.348-9.352 0-5.164-4.187-9.343-9.348-9.343zM104.34 260.79H49.46c-5.16 0-9.347 4.183-9.347 9.343 0 5.168 4.188 9.351 9.348 9.351h54.879c5.16 0 9.347-4.183 9.347-9.351 0-5.16-4.187-9.344-9.347-9.344zm50.351 0h-14.144a9.344 9.344 0 00-9.344 9.343c0 5.168 4.184 9.351 9.344 9.351h14.144c5.16 0 9.348-4.183 9.348-9.351 0-5.16-4.187-9.344-9.348-9.344zm-50.351 47.394H49.46c-5.16 0-9.347 4.187-9.347 9.351 0 5.168 4.188 9.352 9.348 9.352h54.879c5.16 0 9.347-4.184 9.347-9.352 0-5.16-4.187-9.351-9.347-9.351zm50.351 0h-14.144c-5.16 0-9.344 4.187-9.344 9.351 0 5.168 4.184 9.352 9.344 9.352h14.144c5.16 0 9.348-4.184 9.348-9.352 0-5.16-4.187-9.351-9.348-9.351zm0 0" fill="#ef4242" data-original="#000000"/></svg>