<svg xmlns="http://www.w3.org/2000/svg" width="512" height="512"><g xmlns="http://www.w3.org/2000/svg" fill="#ef4242"><path d="M115.667 168.654h22.257a7.49 7.49 0 000-14.978h-22.257c-4.136 0-7.489 3.352-7.489 7.489s3.353 7.489 7.489 7.489zm64.838 0h153.83a7.49 7.49 0 000-14.978h-153.83c-4.136 0-7.489 3.352-7.489 7.489s3.353 7.489 7.489 7.489zm-64.838 40.091h22.257a7.49 7.49 0 000-14.978h-22.257a7.49 7.49 0 000 14.978zm64.838 0h153.83a7.49 7.49 0 000-14.978h-153.83a7.49 7.49 0 000 14.978zm-64.838 40.092h22.257a7.49 7.49 0 000-14.978h-22.257a7.49 7.49 0 000 14.978zm64.838 0h153.83a7.49 7.49 0 000-14.978h-153.83a7.49 7.49 0 000 14.978zm-64.838 40.091h22.257a7.49 7.49 0 000-14.978h-22.257a7.49 7.49 0 000 14.978zm64.838 0h153.83a7.49 7.49 0 000-14.978h-153.83a7.49 7.49 0 000 14.978zm-64.838 40.092h22.257a7.49 7.49 0 000-14.978h-22.257a7.49 7.49 0 000 14.978zm64.838 0h123.366a7.49 7.49 0 000-14.978H180.505a7.49 7.49 0 000 14.978zm-64.838 40.092h22.257c4.136 0 7.489-3.352 7.489-7.489s-3.353-7.489-7.489-7.489h-22.257a7.49 7.49 0 000 14.978zm64.838 0h82.721c4.136 0 7.489-3.352 7.489-7.489s-3.353-7.489-7.489-7.489h-82.721a7.49 7.49 0 000 14.978zm-64.838 40.091h22.257a7.49 7.49 0 000-14.978h-22.257a7.49 7.49 0 000 14.978zm64.838 0h61.683a7.49 7.49 0 000-14.978h-61.683c-4.136 0-7.489 3.352-7.489 7.489s3.353 7.489 7.489 7.489zm-64.838 40.092h22.257c4.136 0 7.489-3.352 7.489-7.489s-3.353-7.489-7.489-7.489h-22.257a7.49 7.49 0 000 14.978zm64.838 0h54.658c4.136 0 7.489-3.352 7.489-7.489s-3.353-7.489-7.489-7.489h-54.658a7.49 7.49 0 000 14.978z" data-original="#000000"/><path d="M455.718 370.123a22.4 22.4 0 00-7.609-15.488c-4.522-3.976-10.32-5.951-16.331-5.571a22.395 22.395 0 00-15.488 7.61l-4.75 5.399c-9.031-7.504-19.636-13.175-31.245-16.427V88.623c0-12.471-10.146-22.618-22.618-22.618h-57.713V54.579c0-7.466-6.05-13.54-13.485-13.54H255.6v-3.426C255.601 16.873 238.852 0 218.265 0S180.93 16.873 180.93 37.613v3.426h-30.879c-7.436 0-13.486 6.074-13.486 13.54v11.426H78.853c-12.472 0-22.618 10.147-22.618 22.618v58.791a7.49 7.49 0 0014.978 0V88.623c0-4.213 3.427-7.641 7.64-7.641h57.713v11.426c0 7.466 6.05 13.541 13.486 13.541H286.48c7.436 0 13.485-6.075 13.485-13.541V80.982h57.713c4.213 0 7.64 3.427 7.64 7.641v254.252a85.29 85.29 0 00-7.853-.377c-12.106 0-23.801 2.501-34.759 7.435a7.489 7.489 0 00-3.754 9.903 7.487 7.487 0 009.903 3.754c9.012-4.057 18.638-6.115 28.61-6.115 16.76 0 32.153 5.946 44.194 15.832l-36.435 41.421-13.26-15.471a22.404 22.404 0 00-15.389-7.808c-6-.455-11.83 1.443-16.401 5.362-9.439 8.089-10.536 22.35-2.446 31.79l30.158 35.184a22.556 22.556 0 0017.021 7.873h.097c6.48 0 12.65-2.79 16.928-7.655l44.023-50.048a69.417 69.417 0 011.283 13.294c0 38.474-31.3 69.774-69.774 69.774s-69.773-31.3-69.773-69.774c0-16.362 5.778-32.268 16.269-44.788a7.49 7.49 0 00-11.48-9.621c-12.747 15.211-19.767 34.533-19.767 54.408 0 28.909 14.559 54.471 36.719 69.774H78.853c-4.213 0-7.64-3.428-7.64-7.641V181.595a7.49 7.49 0 00-14.978 0v307.786c0 12.472 10.146 22.619 22.618 22.619h278.614c46.732 0 84.752-38.02 84.752-84.751a84.235 84.235 0 00-4.377-26.804l12.306-13.99a22.403 22.403 0 005.57-16.332zM284.988 90.971H151.543V56.016h36.876a7.49 7.49 0 007.489-7.489V37.613c0-12.481 10.029-22.635 22.358-22.635 12.328 0 22.358 10.154 22.358 22.635v10.915a7.49 7.49 0 007.489 7.489h36.876v34.954zm153.914 285.592l-68.214 77.548c-3.193 3.63-8.311 3.557-11.428-.074l-30.157-35.184c-2.716-3.168-2.348-7.955.821-10.672 3.341-2.864 7.776-2.439 10.67.822l18.873 22.019a7.486 7.486 0 005.638 2.615c2.197.034 4.238-.914 5.671-2.543l56.761-64.529a7.516 7.516 0 015.198-2.554c2.014-.127 3.964.535 5.482 1.87s2.425 3.181 2.554 5.198a7.523 7.523 0 01-1.869 5.484z" data-original="#000000"/></g></svg>