<svg xmlns="http://www.w3.org/2000/svg" width="512" height="512" viewBox="0 0 64 64"><g xmlns="http://www.w3.org/2000/svg" fill="#ef4242"><path d="M22.011 46.744a1 1 0 01-1-1V22.002a1 1 0 112 0v23.742a1 1 0 01-1 1zm19.996.001a1 1 0 01-1-1V22.002a1 1 0 112 0v23.743a1 1 0 01-1 1z" data-original="#000000"/><path d="M42.007 23.002H22.011a1 1 0 110-2h19.996a1 1 0 110 2zM27.01 49.249a1 1 0 01-1-1V28.003a1 1 0 112 0v20.246a1 1 0 01-1 1zm4.999.751a1 1 0 01-1-1V28.003a1 1 0 112 0V49a1 1 0 01-1 1zm4.999-.751a1 1 0 01-1-1V28.003a1 1 0 112 0v20.246a1 1 0 01-1 1z" data-original="#000000"/><path d="M29.501 23.002a1 1 0 01-1-1v-4a1 1 0 112 0v4a1 1 0 01-1 1zm4.999 0a1 1 0 01-1-1v-4a1 1 0 112 0v4a1 1 0 01-1 1zm-9.489 0a1 1 0 01-1-1v-7.998a1 1 0 112 0v7.998a1 1 0 01-1 1zm13.996 0a1 1 0 01-1-1v-7.998a1 1 0 112 0v7.998a1 1 0 01-1 1z" data-original="#000000"/><path d="M39.007 15.004H25.011a1 1 0 110-2h13.996a1 1 0 110 2z" data-original="#000000"/><path d="M29.009 15.004a1 1 0 01-1-1V9.003a1 1 0 112 0v5.001a1 1 0 01-1 1zm6 0a1 1 0 01-1-1V9.003a1 1 0 112 0v5.001a1 1 0 01-1 1z" data-original="#000000"/><path d="M35.009 10.003h-6a1 1 0 110-2h6a1 1 0 110 2z" data-original="#000000"/><path d="M32.009 10.003a1 1 0 01-1-1V5.005a1 1 0 112 0v3.998a1 1 0 01-1 1z" data-original="#000000"/><path d="M38 64H26a1 1 0 01-1-1v-3.891a27.762 27.762 0 01-7.218-2.991l-2.753 2.752a1.03 1.03 0 01-1.414 0L5.13 50.385a.997.997 0 010-1.414l2.752-2.753A27.762 27.762 0 014.891 39H1a1 1 0 01-1-1V26a1 1 0 011-1h3.891a27.762 27.762 0 012.991-7.218L5.13 15.029a.997.997 0 010-1.414l8.485-8.485a1.03 1.03 0 011.414 0l2.753 2.752A27.762 27.762 0 0125 4.891V1a1 1 0 011-1h12a1 1 0 011 1v3.891a27.762 27.762 0 017.218 2.991l2.753-2.752a1.03 1.03 0 011.414 0l8.485 8.485a.997.997 0 010 1.414l-2.752 2.753A27.762 27.762 0 0159.109 25H63a1 1 0 011 1v12a1 1 0 01-1 1h-3.891a27.762 27.762 0 01-2.991 7.218l2.752 2.753a.997.997 0 010 1.414l-8.485 8.485a1.03 1.03 0 01-1.414 0l-2.753-2.752A27.762 27.762 0 0139 59.109V63a1 1 0 01-1 1zm-11-2h10v-3.678c0-.467.323-.872.778-.976a25.772 25.772 0 008.058-3.339 1 1 0 011.24.14l2.602 2.602 7.071-7.071-2.602-2.602a1.001 1.001 0 01-.14-1.24 25.8 25.8 0 003.339-8.058c.104-.455.509-.778.976-.778H62V27h-3.678c-.467 0-.872-.323-.976-.778a25.772 25.772 0 00-3.339-8.058c-.248-.396-.19-.91.14-1.24l2.602-2.602-7.071-7.071-2.602 2.602a1.002 1.002 0 01-1.24.14 25.8 25.8 0 00-8.058-3.339A1.001 1.001 0 0137 5.678V2H27v3.678c0 .467-.323.872-.778.976a25.772 25.772 0 00-8.058 3.339c-.395.247-.91.191-1.24-.14l-2.602-2.602-7.071 7.071 2.602 2.602c.33.33.388.845.14 1.24a25.8 25.8 0 00-3.339 8.058 1.001 1.001 0 01-.976.778H2v10h3.678c.467 0 .872.323.976.778a25.772 25.772 0 003.339 8.058c.248.396.19.91-.14 1.24l-2.602 2.602 7.071 7.071 2.602-2.602a1 1 0 011.24-.14 25.8 25.8 0 008.058 3.339c.455.104.778.509.778.976z" data-original="#000000"/><path d="M32 50c-9.925 0-18-8.075-18-18 0-7.058 4.16-13.499 10.598-16.41a1 1 0 01.824 1.822C19.698 20.001 16 25.727 16 32c0 8.822 7.178 16 16 16s16-7.178 16-16a16.041 16.041 0 00-9.413-14.583.999.999 0 11.824-1.822C45.844 18.507 50 24.946 50 32c0 9.925-8.075 18-18 18z" data-original="#000000"/><path d="M16.443 48.557a.997.997 0 01-.707-.293c-8.968-8.968-8.968-23.56 0-32.527a.999.999 0 111.414 1.414c-8.188 8.188-8.188 21.511 0 29.699a.999.999 0 01-.707 1.707zm31.114 0a.999.999 0 01-.707-1.707c8.188-8.188 8.188-21.511 0-29.699a.999.999 0 111.414-1.414c8.968 8.968 8.968 23.56 0 32.527a.999.999 0 01-.707.293z" data-original="#000000"/></g></svg>