<svg xmlns="http://www.w3.org/2000/svg" id="Capa_1" height="512px" viewBox="0 0 512 512" width="512px">
													<g>
														<g>
															<g>
																<g>
																	<path d="m120.418 111.219h143.629c7.124 0 12.919-5.795 12.919-12.919v-16.441c0-7.124-5.795-12.92-12.919-12.92h-143.629c-7.124 0-12.92 5.796-12.92 12.92v16.441c0 7.124 5.796 12.919 12.92 12.919zm2.09-27.27h139.448v12.26h-139.448z" data-original="#000000" class="active-path" data-old_color="#000000" fill="#EF4242">
																	</path>
																	<path d="m107.498 164.185c0 7.124 5.796 12.919 12.92 12.919h143.629c7.124 0 12.919-5.795 12.919-12.919v-16.442c0-7.124-5.795-12.919-12.919-12.919h-143.629c-7.124 0-12.92 5.795-12.92 12.919zm15.01-14.352h139.448v12.26h-139.448z" data-original="#000000" class="active-path" data-old_color="#000000" fill="#EF4242">
																	</path>
																	<path d="m243.267 276.476h20.85c6.831 0 12.387-5.557 12.387-12.388v-17.077c0-6.831-5.557-12.387-12.387-12.387h-20.85c-6.831 0-12.387 5.556-12.387 12.387v17.077c-.001 6.831 5.556 12.388 12.387 12.388zm2.622-26.841h15.605v11.832h-15.605z" data-original="#000000" class="active-path" data-old_color="#000000" fill="#EF4242">
																	</path>
																	<path d="m340.426 247.012c0-6.831-5.557-12.387-12.387-12.387h-20.849c-6.831 0-12.387 5.556-12.387 12.387v17.077c0 6.831 5.557 12.388 12.387 12.388h20.849c6.831 0 12.387-5.557 12.387-12.388zm-15.009 14.454h-15.605v-11.832h15.605z" data-original="#000000" class="active-path" data-old_color="#000000" fill="#EF4242">
																	</path>
																	<path d="m404.516 247.012c0-6.831-5.557-12.387-12.387-12.387h-20.85c-6.831 0-12.387 5.556-12.387 12.387v17.077c0 6.831 5.557 12.388 12.387 12.388h20.85c6.831 0 12.387-5.557 12.387-12.388zm-15.01 14.454h-15.605v-11.832h15.605z" data-original="#000000" class="active-path" data-old_color="#000000" fill="#EF4242">
																	</path>
																	<path d="m230.879 337.136c0 6.831 5.557 12.387 12.387 12.387h20.85c6.831 0 12.387-5.556 12.387-12.387v-17.077c0-6.831-5.557-12.388-12.387-12.388h-20.85c-6.831 0-12.387 5.557-12.387 12.388zm15.01-14.455h15.605v11.832h-15.605z" data-original="#000000" class="active-path" data-old_color="#000000" fill="#EF4242">
																	</path>
																	<path d="m328.039 349.523c6.831 0 12.387-5.556 12.387-12.387v-17.077c0-6.831-5.557-12.388-12.387-12.388h-20.849c-6.831 0-12.387 5.557-12.387 12.388v17.077c0 6.831 5.557 12.387 12.387 12.387zm-18.227-26.842h15.605v11.832h-15.605z" data-original="#000000" class="active-path" data-old_color="#000000" fill="#EF4242">
																	</path>
																	<path d="m230.879 410.182c0 6.831 5.557 12.388 12.387 12.388h47.294c6.831 0 12.387-5.557 12.387-12.388v-17.077c0-6.831-5.557-12.387-12.387-12.387h-47.294c-6.831 0-12.387 5.556-12.387 12.387zm15.01-14.454h42.049v11.832h-42.049z" data-original="#000000" class="active-path" data-old_color="#000000" fill="#EF4242">
																	</path>
																	<path d="m392.128 307.671h-20.85c-6.831 0-12.387 5.557-12.387 12.388v17.077c0 6.831 5.557 12.387 12.387 12.387h20.85c6.831 0 12.387-5.556 12.387-12.387v-17.077c.001-6.83-5.556-12.388-12.387-12.388zm-2.622 26.842h-15.605v-11.832h15.605z" data-original="#000000" class="active-path" data-old_color="#000000" fill="#EF4242">
																	</path>
																	<path d="m493.101 462.831c.264-15.281-9.793-27.903-23.622-31.671-3.778-13.792-16.268-23.6-31.099-23.6h-1.244v-98.309c0-4.145-3.36-7.505-7.505-7.505s-7.505 3.36-7.505 7.505v152.771h-19.779v-67.14c0-7.81-6.354-14.163-14.164-14.163h-55.43c-7.81 0-14.164 6.354-14.164 14.163v67.14h-105.487c0-23.876 0-218.81 0-251.21 0-3.74 3.032-6.909 6.908-6.909h195.209c3.809 0 6.908 3.1 6.908 6.909v63.353c0 4.145 3.36 7.505 7.505 7.505s7.505-3.36 7.505-7.505v-63.353c0-12.086-9.833-21.919-21.918-21.919h-105.618v-138c0-10.6-7.565-19.466-17.58-21.485v-13.52c0-8.76-7.127-15.888-15.887-15.888h-167.803c-8.761 0-15.888 7.128-15.888 15.888v13.522c-10.015 2.019-17.58 10.885-17.58 21.485v21.624c0 4.145 3.36 7.505 7.505 7.505s7.505-3.36 7.505-7.505v-21.625c0-3.809 3.099-6.908 6.908-6.908h190.902c3.809 0 6.908 3.099 6.908 6.908v138h-74.581c-8.353 0-15.74 4.715-19.426 11.814h-80.166c-7.122 0-12.92 5.793-12.92 12.919v16.441c0 7.124 5.796 12.92 12.92 12.92h77.674v23.605h-77.674c-7.124 0-12.92 5.795-12.92 12.919v16.441c0 7.124 5.796 12.92 12.92 12.92h77.674v23.604h-77.674c-7.124 0-12.92 5.796-12.92 12.92v16.44c0 7.124 5.796 12.92 12.92 12.92h77.674v23.605h-77.674c-7.124 0-12.92 5.795-12.92 12.919v16.441c0 7.124 5.796 12.92 12.92 12.92h77.674v21.382h-108.219v-354.453c0-4.145-3.36-7.505-7.505-7.505s-7.505 3.36-7.505 7.505v299.989h-1.243c-14.83 0-27.32 9.808-31.099 23.6-13.821 3.765-23.887 16.382-23.622 31.671-10.733 2.803-18.678 12.581-18.678 24.18 0 13.779 11.21 24.989 24.989 24.989h461.58c13.779 0 24.989-11.21 24.989-24.989 0-11.599-7.944-21.376-18.678-24.18zm-384.77-447.821h167.803c.484 0 .878.394.878.878v13.089h-169.559v-13.089c0-.484.394-.878.878-.878zm14.177 212.968v-12.26h75.584v12.26zm0 65.884v-12.26h75.584v12.26zm0 65.884v-12.26h75.584v12.26zm0 65.885v-12.26h75.584v12.26zm314.629-3.061h1.244c8.853 0 16.402 6.897 17.186 15.703.322 3.622 3.196 6.492 6.819 6.811 8.735.766 15.585 8.184 15.714 16.939h-40.964v-39.453zm-103.537-26.842h53.738v66.294h-53.738zm-283.986 49.356c3.623-.319 6.496-3.189 6.819-6.811.784-8.806 8.334-15.703 17.186-15.703h1.244v39.452h-40.963c.129-8.755 6.979-16.173 15.714-16.938zm437.176 51.906h-461.58c-5.503 0-9.979-4.477-9.979-9.979s4.477-9.979 9.979-9.979h461.581c5.503 0 9.979 4.477 9.979 9.979s-4.477 9.979-9.98 9.979z" data-original="#000000" class="active-path" data-old_color="#000000" fill="#EF4242">
																	</path>
																</g>
															</g>
														</g>
													</g>
												</svg>
