<svg viewBox="0 0 20.615 20.635" width="512px" xmlns="http://www.w3.org/2000/svg">
													<g data-name="Layer 2" id="Layer_2">
														<g data-name="Layer 1" id="Layer_1-2">
															<path class="cls-1" d="M19.96,16.855l-6.116-6.144,5.3-5.3a.309.309,0,0,0,.08-.136L20.591.413a.312.312,0,0,0-.385-.386L15.338,1.4a.313.313,0,0,0-.136.08L9.918,6.768,8.078,4.92A4.112,4.112,0,0,0,2.7.256.312.312,0,0,0,2.586.77L5.2,3.4,3.364,5.241.752,2.617a.315.315,0,0,0-.516.115A4.087,4.087,0,0,0,1.412,7.2l-.936.94a.311.311,0,0,0,0,.441,3.03,3.03,0,0,0,4.589-.447L6.8,9.883,2.19,14.5c-.155-.18-.4-.408-.626-.184s0,.471.184.625L.411,16.278a1.419,1.419,0,0,0,0,2L2.35,20.208a1.417,1.417,0,0,0,2,0l1.336-1.335c.15.179.391.377.606.164s.013-.462-.165-.606l4.6-4.6,6.121,6.148A2.2,2.2,0,0,0,19.96,16.855ZM18.763,4.6,16.02,1.859,19.839.78ZM.689,3.438,2.924,5.684,1.844,6.768A3.5,3.5,0,0,1,.689,3.438Zm4.6,4.036c-.345-.342-.738.358-1.109.669a2.308,2.308,0,0,1-3.026.205L5.863,3.617a.313.313,0,0,0,0-.441L3.405.707A3.485,3.485,0,0,1,7.446,4.891a.314.314,0,0,0,.065.345L9.476,7.21,7.245,9.442ZM15.423,2.145,16.73,3.45,3.938,16.244l-1.307-1.3ZM3.908,19.766a.791.791,0,0,1-1.117,0L.853,17.834a.792.792,0,0,1,0-1.115L2.19,15.38l3.054,3.05Zm1.777-1.777-1.3-1.3L17.172,3.892l1.3,1.3Zm13.832,1.545a1.575,1.575,0,0,1-2.224,0l-6.122-6.149L13.4,11.153,19.517,17.3A1.588,1.588,0,0,1,19.517,19.534Z" id="services" fill="#EF4242"></path>
														</g>
													</g>
												</svg>
