<svg xmlns="http://www.w3.org/2000/svg" xmlns:xlink="http://www.w3.org/1999/xlink" xmlns:svgjs="http://svgjs.com/svgjs" width="512" height="512" x="0" y="0" viewBox="0 0 64 64" style="enable-background:new 0 0 512 512" xml:space="preserve"><g><g xmlns="http://www.w3.org/2000/svg"><g><g><path d="m22.011 46.744c-.553 0-1-.447-1-1v-23.742c0-.553.447-1 1-1s1 .447 1 1v23.742c0 .553-.448 1-1 1z" fill="#ef4242" data-original="#000000" style=""></path></g><g><path d="m42.007 46.745c-.553 0-1-.447-1-1v-23.743c0-.553.447-1 1-1s1 .447 1 1v23.743c0 .553-.447 1-1 1z" fill="#ef4242" data-original="#000000" style=""></path></g><g><path d="m42.007 23.002h-19.996c-.553 0-1-.447-1-1s.447-1 1-1h19.996c.553 0 1 .447 1 1s-.447 1-1 1z" fill="#ef4242" data-original="#000000" style=""></path></g><g><path d="m27.01 49.249c-.553 0-1-.447-1-1v-20.246c0-.553.447-1 1-1s1 .447 1 1v20.246c0 .553-.447 1-1 1z" fill="#ef4242" data-original="#000000" style=""></path></g><g><path d="m32.009 50c-.553 0-1-.447-1-1v-20.997c0-.553.447-1 1-1s1 .447 1 1v20.997c0 .553-.447 1-1 1z" fill="#ef4242" data-original="#000000" style=""></path></g><g><path d="m37.008 49.249c-.553 0-1-.447-1-1v-20.246c0-.553.447-1 1-1s1 .447 1 1v20.246c0 .553-.447 1-1 1z" fill="#ef4242" data-original="#000000" style=""></path></g><g><path d="m29.501 23.002c-.553 0-1-.447-1-1v-4c0-.553.447-1 1-1s1 .447 1 1v4c0 .553-.447 1-1 1z" fill="#ef4242" data-original="#000000" style=""></path></g><g><path d="m34.5 23.002c-.553 0-1-.447-1-1v-4c0-.553.447-1 1-1s1 .447 1 1v4c0 .553-.447 1-1 1z" fill="#ef4242" data-original="#000000" style=""></path></g><g><path d="m25.011 23.002c-.553 0-1-.447-1-1v-7.998c0-.553.447-1 1-1s1 .447 1 1v7.998c0 .553-.448 1-1 1z" fill="#ef4242" data-original="#000000" style=""></path></g><g><path d="m39.007 23.002c-.553 0-1-.447-1-1v-7.998c0-.553.447-1 1-1s1 .447 1 1v7.998c0 .553-.447 1-1 1z" fill="#ef4242" data-original="#000000" style=""></path></g><g><path d="m39.007 15.004h-13.996c-.553 0-1-.447-1-1s.447-1 1-1h13.996c.553 0 1 .447 1 1s-.447 1-1 1z" fill="#ef4242" data-original="#000000" style=""></path></g><g><path d="m29.009 15.004c-.553 0-1-.447-1-1v-5.001c0-.553.447-1 1-1s1 .447 1 1v5.001c0 .553-.447 1-1 1z" fill="#ef4242" data-original="#000000" style=""></path></g><g><path d="m35.009 15.004c-.553 0-1-.447-1-1v-5.001c0-.553.447-1 1-1s1 .447 1 1v5.001c0 .553-.447 1-1 1z" fill="#ef4242" data-original="#000000" style=""></path></g><g><path d="m35.009 10.003h-6c-.553 0-1-.447-1-1s.447-1 1-1h6c.553 0 1 .447 1 1s-.447 1-1 1z" fill="#ef4242" data-original="#000000" style=""></path></g><g><path d="m32.009 10.003c-.553 0-1-.447-1-1v-3.998c0-.553.447-1 1-1s1 .447 1 1v3.998c0 .553-.447 1-1 1z" fill="#ef4242" data-original="#000000" style=""></path></g></g><g><g><path d="m38 64h-12c-.553 0-1-.447-1-1v-3.891c-2.536-.652-4.958-1.656-7.218-2.991l-2.753 2.752c-.375.375-1.039.375-1.414 0l-8.485-8.485c-.188-.188-.293-.441-.293-.707s.105-.52.293-.707l2.752-2.753c-1.335-2.26-2.339-4.682-2.991-7.218h-3.891c-.553 0-1-.447-1-1v-12c0-.553.447-1 1-1h3.891c.652-2.536 1.656-4.958 2.991-7.218l-2.752-2.753c-.188-.188-.293-.441-.293-.707s.105-.52.293-.707l8.485-8.485c.375-.375 1.039-.375 1.414 0l2.753 2.752c2.26-1.335 4.682-2.339 7.218-2.991v-3.891c0-.553.447-1 1-1h12c.553 0 1 .447 1 1v3.891c2.536.652 4.958 1.656 7.218 2.991l2.753-2.752c.375-.375 1.039-.375 1.414 0l8.485 8.485c.188.188.293.441.293.707s-.105.52-.293.707l-2.752 2.753c1.335 2.26 2.339 4.682 2.991 7.218h3.891c.553 0 1 .447 1 1v12c0 .553-.447 1-1 1h-3.891c-.652 2.536-1.656 4.958-2.991 7.218l2.752 2.753c.188.188.293.441.293.707s-.105.52-.293.707l-8.485 8.485c-.375.375-1.039.375-1.414 0l-2.753-2.752c-2.26 1.335-4.682 2.339-7.218 2.991v3.891c0 .553-.447 1-1 1zm-11-2h10v-3.678c0-.467.323-.872.778-.976 2.858-.648 5.569-1.771 8.058-3.339.395-.247.909-.192 1.24.14l2.602 2.602 7.071-7.071-2.602-2.602c-.33-.33-.388-.845-.14-1.24 1.567-2.488 2.69-5.199 3.339-8.058.104-.455.509-.778.976-.778h3.678v-10h-3.678c-.467 0-.872-.323-.976-.778-.648-2.858-1.771-5.569-3.339-8.058-.248-.396-.19-.91.14-1.24l2.602-2.602-7.071-7.071-2.602 2.602c-.331.331-.846.387-1.24.14-2.488-1.567-5.199-2.69-8.058-3.339-.455-.104-.778-.509-.778-.976v-3.678h-10v3.678c0 .467-.323.872-.778.976-2.858.648-5.569 1.771-8.058 3.339-.395.247-.91.191-1.24-.14l-2.602-2.602-7.071 7.071 2.602 2.602c.33.33.388.845.14 1.24-1.567 2.488-2.69 5.199-3.339 8.058-.104.455-.509.778-.976.778h-3.678v10h3.678c.467 0 .872.323.976.778.648 2.858 1.771 5.569 3.339 8.058.248.396.19.91-.14 1.24l-2.602 2.602 7.071 7.071 2.602-2.602c.33-.332.846-.387 1.24-.14 2.488 1.567 5.199 2.69 8.058 3.339.455.104.778.509.778.976z" fill="#ef4242" data-original="#000000" style=""></path></g><g><path d="m32 50c-9.925 0-18-8.075-18-18 0-7.058 4.16-13.499 10.598-16.41.503-.229 1.096-.004 1.323.499s.004 1.096-.499 1.323c-5.724 2.589-9.422 8.315-9.422 14.588 0 8.822 7.178 16 16 16s16-7.178 16-16c0-6.271-3.695-11.994-9.413-14.583-.504-.228-.727-.82-.499-1.323.228-.502.819-.728 1.323-.499 6.433 2.912 10.589 9.351 10.589 16.405 0 9.925-8.075 18-18 18z" fill="#ef4242" data-original="#000000" style=""></path></g></g><g><path d="m16.443 48.557c-.256 0-.512-.098-.707-.293-8.968-8.968-8.968-23.56 0-32.527.391-.391 1.023-.391 1.414 0s.391 1.023 0 1.414c-8.188 8.188-8.188 21.511 0 29.699.391.391.391 1.023 0 1.414-.195.195-.451.293-.707.293z" fill="#ef4242" data-original="#000000" style=""></path></g><g><path d="m47.557 48.557c-.256 0-.512-.098-.707-.293-.391-.391-.391-1.023 0-1.414 8.188-8.188 8.188-21.511 0-29.699-.391-.391-.391-1.023 0-1.414s1.023-.391 1.414 0c8.968 8.968 8.968 23.56 0 32.527-.196.195-.451.293-.707.293z" fill="#ef4242" data-original="#000000" style=""></path></g></g></g></svg>
