<svg xmlns="http://www.w3.org/2000/svg" xmlns:xlink="http://www.w3.org/1999/xlink" xmlns:svgjs="http://svgjs.com/svgjs" width="512" height="512" x="0" y="0" viewBox="0 0 682.66669 682" style="enable-background:new 0 0 512 512" xml:space="preserve" class=""><g><path xmlns="http://www.w3.org/2000/svg" d="m620.679688 104.011719h-49.238282c-5.167968 0-9.351562 4.183593-9.351562 9.347656 0 5.167969 4.183594 9.351563 9.351562 9.351563h49.238282c.339843 0 .617187.277343.617187.625v497.277343h-94.152344v-316.808593c0-8.59375-6.988281-15.585938-15.582031-15.585938h-2.480469v-165.507812h19.722657c5.164062 0 9.351562-4.183594 9.351562-9.351563 0-5.160156-4.1875-9.347656-9.351562-9.347656h-19.722657v-24.074219c0-3.398438-1.820312-6.367188-4.53125-8.003906l-61.109375-66.632813c-2.933594-3.199219-7.109375-5.039062-11.449218-5.050781-4.332032.050781-8.523438 1.816406-11.480469 5.003906-11.757813 11.765625-22.664063 24.53125-33.953125 36.746094-7.632813 8.261719-15.269532 16.515625-22.902344 24.777344-1.894531 2.050781-3.953125 4.035156-5.726562 6.199218-3.601563 4.402344-3.050782 10.089844-3.050782 15.539063v199.707031h-2.488281c-8.59375 0-15.578125 6.988282-15.578125 15.582032v326.164062c0 5.160156 4.183594 9.34375 9.351562 9.34375h284.484376c5.167968 0 9.351562-4.183594 9.351562-9.34375v-506.632812c0-10.660157-8.667969-19.324219-19.320312-19.324219zm-188.730469-83.574219 45.988281 50.148438h-92.34375zm-58.375 68.851562h116.808593v198.933594h-116.808593zm83.4375 531.324219h-44.164063v-56.113281h44.164063zm51.433593 0h-32.734374v-59.230469c0-8.59375-6.992188-15.585937-15.585938-15.585937h-50.398438c-8.59375 0-15.582031 6.992187-15.582031 15.585937v59.230469h-38.636719v-313.691406h152.9375zm0 0" fill="#ef4242" data-original="#000000" style="" class=""></path><path xmlns="http://www.w3.org/2000/svg" d="m584.53125 160.019531h-26.179688c-5.164062 0-9.351562-4.183593-9.351562-9.347656 0-5.167969 4.1875-9.351563 9.351562-9.351563h26.179688c5.160156 0 9.351562 4.183594 9.351562 9.351563 0 5.164063-4.191406 9.347656-9.351562 9.347656zm0 0" fill="#ef4242" data-original="#000000" style="" class=""></path><path xmlns="http://www.w3.org/2000/svg" d="m584.53125 219.753906h-26.179688c-5.164062 0-9.351562-4.1875-9.351562-9.351562 0-5.167969 4.1875-9.351563 9.351562-9.351563h26.179688c5.160156 0 9.351562 4.183594 9.351562 9.351563 0 5.164062-4.191406 9.351562-9.351562 9.351562zm0 0" fill="#ef4242" data-original="#000000" style="" class=""></path><path xmlns="http://www.w3.org/2000/svg" d="m584.53125 279.484375h-26.179688c-5.164062 0-9.351562-4.183594-9.351562-9.351563 0-5.160156 4.1875-9.351562 9.351562-9.351562h26.179688c5.160156 0 9.351562 4.1875 9.351562 9.351562 0 5.167969-4.191406 9.351563-9.351562 9.351563zm0 0" fill="#ef4242" data-original="#000000" style="" class=""></path><path xmlns="http://www.w3.org/2000/svg" d="m584.53125 339.214844h-26.179688c-5.164062 0-9.351562-4.183594-9.351562-9.351563 0-5.164062 4.1875-9.347656 9.351562-9.347656h26.179688c5.160156 0 9.351562 4.183594 9.351562 9.347656 0 5.167969-4.191406 9.351563-9.351562 9.351563zm0 0" fill="#ef4242" data-original="#000000" style="" class=""></path><path xmlns="http://www.w3.org/2000/svg" d="m584.53125 398.945312h-26.179688c-5.164062 0-9.351562-4.183593-9.351562-9.347656 0-5.164062 4.1875-9.351562 9.351562-9.351562h26.179688c5.160156 0 9.351562 4.183594 9.351562 9.351562 0 5.164063-4.191406 9.347656-9.351562 9.347656zm0 0" fill="#ef4242" data-original="#000000" style="" class=""></path><path xmlns="http://www.w3.org/2000/svg" d="m584.53125 458.679688h-26.179688c-5.164062 0-9.351562-4.1875-9.351562-9.351563 0-5.160156 4.1875-9.351563 9.351562-9.351563h26.179688c5.160156 0 9.351562 4.191407 9.351562 9.351563 0 5.164063-4.191406 9.351563-9.351562 9.351563zm0 0" fill="#ef4242" data-original="#000000" style="" class=""></path><path xmlns="http://www.w3.org/2000/svg" d="m584.53125 518.410156h-26.179688c-5.164062 0-9.351562-4.183594-9.351562-9.347656s4.1875-9.347656 9.351562-9.347656h26.179688c5.160156 0 9.351562 4.183594 9.351562 9.347656s-4.191406 9.347656-9.351562 9.347656zm0 0" fill="#ef4242" data-original="#000000" style="" class=""></path><path xmlns="http://www.w3.org/2000/svg" d="m289.410156 94.792969h-92.871094c-15.6875 0-28.453124-12.765625-28.453124-28.457031 0-15.691407 12.765624-28.449219 28.453124-28.449219 2.164063 0 4.300782.25 6.375.734375 4.433594-21.101563 23.1875-36.988282 45.585938-36.988282 22.117188 0 40.878906 15.746094 45.488281 36.621094 13.519531 2.195313 23.871094 13.953125 23.871094 28.082032 0 15.6875-12.761719 28.457031-28.449219 28.457031zm-92.871094-38.210938c-5.382812 0-9.757812 4.375-9.757812 9.753907 0 5.378906 4.375 9.753906 9.757812 9.753906h92.871094c5.378906 0 9.753906-4.375 9.753906-9.753906 0-5.378907-4.375-9.753907-9.753906-9.753907-.617187 0-1.253906.066407-1.902344.191407-2.71875.527343-5.523437-.164063-7.679687-1.910157-2.148437-1.742187-3.417969-4.34375-3.460937-7.113281-.242188-15.121094-12.742188-27.417969-27.867188-27.417969-15.371094 0-27.875 12.507813-27.875 27.878907 0 1.683593.160156 3.40625.476562 5.117187.792969 4.28125-1.476562 8.542969-5.472656 10.277344s-8.660156.472656-11.246094-3.027344c-1.875-2.539063-4.730468-3.996094-7.84375-3.996094zm0 0" fill="#ef4242" data-original="#000000" style="" class=""></path><path xmlns="http://www.w3.org/2000/svg" d="m290.640625 376.476562-86.484375-15.585937v-44.640625c0-5.164062-4.191406-9.347656-9.351562-9.347656-5.164063 0-9.351563 4.183594-9.351563 9.347656v41.269531l-80.179687-14.445312c-5.195313-.9375-10.5.46875-14.550782 3.851562-2.738281 2.289063-4.664062 5.316407-5.640625 8.660157h-35.621093c-5.164063 0-9.347657 4.1875-9.347657 9.347656 0 5.164062 4.183594 9.351562 9.347657 9.351562h34.890624v28.703125h-34.890624c-5.164063 0-9.347657 4.1875-9.347657 9.351563 0 5.167968 4.183594 9.351562 9.347657 9.351562h34.890624v28.699219h-34.890624c-5.164063 0-9.347657 4.1875-9.347657 9.351563 0 5.167968 4.183594 9.347656 9.347657 9.347656h34.890624v28.703125h-34.890624c-5.164063 0-9.347657 4.1875-9.347657 9.347656 0 5.164063 4.183594 9.351563 9.347657 9.351563h34.890624v104.121093h-65.648437v-425.953125h166.75v77.75c0 5.164063 4.1875 9.347656 9.351563 9.347656 5.160156 0 9.34375-4.183593 9.34375-9.347656v-80.871094c0-8.589843-6.984376-15.582031-15.578126-15.582031h-3.773437v-42.265625c0-8.59375-6.992187-15.585937-15.585937-15.585937h-7.082032v-42.472657c0-8.589843-6.992187-15.582031-15.585937-15.582031h-35.117188v-33.039062c0-5.160157-4.183593-9.34375-9.351562-9.34375-5.160157 0-9.347657 4.183593-9.347657 9.34375v33.039062h-35.117187c-8.59375 0-15.582031 6.992188-15.582031 15.582031v42.472657h-7.085938c-8.59375 0-15.582031 6.992187-15.582031 15.585937v42.265625h-3.777344c-8.589843 0-15.582031 6.992188-15.582031 15.585938v438.417969c0 5.167968 4.183594 9.351562 9.351562 9.351562h83.664063c-.007813-.007812-.015625-.023438-.027344-.035156.238281.015625.472657.035156.714844.035156h202.203125c5.164062 0 9.347656-4.183594 9.347656-9.351562v-235.996094c0-8.605469-6.148437-15.964844-14.613281-17.488282zm-229.917969-297.726562h82.707032v39.152344h-82.707032zm-22.667968 58.058594h128.039062v39.148437h-128.039062zm195.574218 483.804687h-77.652344v-85.964843c0-20.128907 16.375-36.503907 36.507813-36.503907h4.640625c20.132812 0 36.503906 16.378907 36.503906 36.503907zm52.929688 0h-34.230469v-85.964843c0-30.4375-24.765625-55.203126-55.203125-55.203126h-4.640625c-30.4375 0-55.203125 24.765626-55.203125 55.203126v85.964843h-34.230469v-258.941406l183.507813 33.070313zm0 0" fill="#ef4242" data-original="#000000" style="" class=""></path><path xmlns="http://www.w3.org/2000/svg" d="m308.9375 240.011719c-.832031 0-1.652344.042969-2.46875.132812-4.304688-14.863281-18.039062-25.761719-34.273438-25.761719-16.304687 0-30.238281 11.183594-34.398437 26.289063-9.964844 2.460937-17.375 11.476563-17.375 22.191406 0 12.601563 10.25 22.851563 22.855469 22.851563h65.660156c12.59375 0 22.851562-10.25 22.851562-22.851563 0-12.601562-10.25-22.851562-22.851562-22.851562zm0 27.007812h-65.660156c-2.292969 0-4.15625-1.867187-4.15625-4.15625 0-2.289062 1.863281-4.15625 4.15625-4.15625.257812 0 .527344.03125.816406.082031 2.71875.535157 5.523438-.164062 7.679688-1.90625 2.152343-1.746093 3.417968-4.347656 3.464843-7.117187.148438-9.203125 7.753907-16.6875 16.957031-16.6875 9.359376 0 16.976563 7.613281 16.976563 16.972656 0 1.019531-.101563 2.070313-.296875 3.109375-.792969 4.289063 1.476562 8.550782 5.476562 10.285156 3.992188 1.738282 8.65625.476563 11.242188-3.027343.378906-.515625 1.460938-1.710938 3.34375-1.710938 2.289062 0 4.152344 1.867188 4.152344 4.15625 0 2.289063-1.863282 4.15625-4.152344 4.15625zm0 0" fill="#ef4242" data-original="#000000" style="" class=""></path><path xmlns="http://www.w3.org/2000/svg" d="m469.585938 149.191406c-5.167969 0-9.351563-4.183594-9.351563-9.347656v-15.828125c0-5.167969 4.183594-9.351563 9.351563-9.351563 5.164062 0 9.351562 4.183594 9.351562 9.351563v15.828125c-.007812 5.164062-4.191406 9.347656-9.351562 9.347656zm0 0" fill="#ef4242" data-original="#000000" style="" class=""></path><path xmlns="http://www.w3.org/2000/svg" d="m469.585938 202.574219c-5.167969 0-9.351563-4.183594-9.351563-9.351563v-15.828125c0-5.160156 4.183594-9.351562 9.351563-9.351562 5.164062 0 9.351562 4.183593 9.351562 9.351562v15.828125c-.007812 5.167969-4.191406 9.351563-9.351562 9.351563zm0 0" fill="#ef4242" data-original="#000000" style="" class=""></path><path xmlns="http://www.w3.org/2000/svg" d="m469.585938 255.953125c-5.167969 0-9.351563-4.183594-9.351563-9.351563v-15.828124c0-5.167969 4.183594-9.351563 9.351563-9.351563 5.164062 0 9.351562 4.183594 9.351562 9.351563v15.828124c-.007812 5.167969-4.191406 9.351563-9.351562 9.351563zm0 0" fill="#ef4242" data-original="#000000" style="" class=""></path><path xmlns="http://www.w3.org/2000/svg" d="m431.976562 149.191406c-5.164062 0-9.351562-4.183594-9.351562-9.347656v-15.828125c0-5.167969 4.1875-9.351563 9.351562-9.351563 5.167969 0 9.351563 4.183594 9.351563 9.351563v15.828125c0 5.164062-4.183594 9.347656-9.351563 9.347656zm0 0" fill="#ef4242" data-original="#000000" style="" class=""></path><path xmlns="http://www.w3.org/2000/svg" d="m431.976562 202.574219c-5.164062 0-9.351562-4.183594-9.351562-9.351563v-15.828125c0-5.160156 4.1875-9.351562 9.351562-9.351562 5.167969 0 9.351563 4.183593 9.351563 9.351562v15.828125c0 5.167969-4.183594 9.351563-9.351563 9.351563zm0 0" fill="#ef4242" data-original="#000000" style="" class=""></path><path xmlns="http://www.w3.org/2000/svg" d="m431.976562 255.953125c-5.164062 0-9.351562-4.183594-9.351562-9.351563v-15.828124c0-5.167969 4.1875-9.351563 9.351562-9.351563 5.167969 0 9.351563 4.183594 9.351563 9.351563v15.828124c0 5.167969-4.183594 9.351563-9.351563 9.351563zm0 0" fill="#ef4242" data-original="#000000" style="" class=""></path><path xmlns="http://www.w3.org/2000/svg" d="m394.371094 149.191406c-5.160156 0-9.347656-4.183594-9.347656-9.347656v-15.828125c0-5.167969 4.1875-9.351563 9.347656-9.351563 5.164062 0 9.347656 4.183594 9.347656 9.351563v15.828125c0 5.164062-4.183594 9.347656-9.347656 9.347656zm0 0" fill="#ef4242" data-original="#000000" style="" class=""></path><path xmlns="http://www.w3.org/2000/svg" d="m394.371094 202.574219c-5.160156 0-9.347656-4.183594-9.347656-9.351563v-15.828125c0-5.160156 4.1875-9.351562 9.347656-9.351562 5.164062 0 9.347656 4.183593 9.347656 9.351562v15.828125c0 5.167969-4.183594 9.351563-9.347656 9.351563zm0 0" fill="#ef4242" data-original="#000000" style="" class=""></path><path xmlns="http://www.w3.org/2000/svg" d="m394.371094 255.953125c-5.160156 0-9.347656-4.183594-9.347656-9.351563v-15.828124c0-5.167969 4.1875-9.351563 9.347656-9.351563 5.164062 0 9.347656 4.183594 9.347656 9.351563v15.828124c0 5.167969-4.183594 9.351563-9.347656 9.351563zm0 0" fill="#ef4242" data-original="#000000" style="" class=""></path><path xmlns="http://www.w3.org/2000/svg" d="m469.375 359.523438c-5.164062 0-9.351562-4.183594-9.351562-9.351563v-20.960937c0-5.160157 4.1875-9.351563 9.351562-9.351563s9.351562 4.183594 9.351562 9.351563v20.960937c0 5.167969-4.1875 9.351563-9.351562 9.351563zm0 0" fill="#ef4242" data-original="#000000" style="" class=""></path><path xmlns="http://www.w3.org/2000/svg" d="m469.375 418c-5.164062 0-9.351562-4.183594-9.351562-9.351562v-20.960938c0-5.167969 4.1875-9.351562 9.351562-9.351562s9.351562 4.183593 9.351562 9.351562v20.960938c0 5.167968-4.1875 9.351562-9.351562 9.351562zm0 0" fill="#ef4242" data-original="#000000" style="" class=""></path><path xmlns="http://www.w3.org/2000/svg" d="m469.375 475.265625c-5.164062 0-9.351562-4.183594-9.351562-9.351563v-20.957031c0-5.164062 4.1875-9.351562 9.351562-9.351562s9.351562 4.1875 9.351562 9.351562v20.960938c0 5.164062-4.1875 9.347656-9.351562 9.347656zm0 0" fill="#ef4242" data-original="#000000" style="" class=""></path><path xmlns="http://www.w3.org/2000/svg" d="m469.375 533.433594c-5.164062 0-9.351562-4.1875-9.351562-9.351563v-20.960937c0-5.164063 4.1875-9.351563 9.351562-9.351563s9.351562 4.1875 9.351562 9.351563v20.960937c0 5.164063-4.1875 9.351563-9.351562 9.351563zm0 0" fill="#ef4242" data-original="#000000" style="" class=""></path><path xmlns="http://www.w3.org/2000/svg" d="m431.757812 359.523438c-5.160156 0-9.34375-4.183594-9.34375-9.351563v-20.960937c0-5.160157 4.183594-9.351563 9.34375-9.351563 5.164063 0 9.351563 4.183594 9.351563 9.351563v20.960937c0 5.167969-4.1875 9.351563-9.351563 9.351563zm0 0" fill="#ef4242" data-original="#000000" style="" class=""></path><path xmlns="http://www.w3.org/2000/svg" d="m431.757812 418c-5.160156 0-9.34375-4.183594-9.34375-9.351562v-20.960938c0-5.167969 4.183594-9.351562 9.34375-9.351562 5.164063 0 9.351563 4.183593 9.351563 9.351562v20.960938c0 5.167968-4.1875 9.351562-9.351563 9.351562zm0 0" fill="#ef4242" data-original="#000000" style="" class=""></path><path xmlns="http://www.w3.org/2000/svg" d="m431.757812 475.265625c-5.160156 0-9.34375-4.183594-9.34375-9.351563v-20.957031c0-5.164062 4.183594-9.351562 9.34375-9.351562 5.164063 0 9.351563 4.1875 9.351563 9.351562v20.960938c0 5.164062-4.1875 9.347656-9.351563 9.347656zm0 0" fill="#ef4242" data-original="#000000" style="" class=""></path><path xmlns="http://www.w3.org/2000/svg" d="m431.757812 533.433594c-5.160156 0-9.34375-4.1875-9.34375-9.351563v-20.960937c0-5.164063 4.183594-9.351563 9.34375-9.351563 5.164063 0 9.351563 4.1875 9.351563 9.351563v20.960937c0 5.164063-4.1875 9.351563-9.351563 9.351563zm0 0" fill="#ef4242" data-original="#000000" style="" class=""></path><path xmlns="http://www.w3.org/2000/svg" d="m394.578125 359.523438c-5.164063 0-9.347656-4.183594-9.347656-9.351563v-20.960937c0-5.160157 4.183593-9.351563 9.347656-9.351563s9.351563 4.183594 9.351563 9.351563v20.960937c0 5.167969-4.183594 9.351563-9.351563 9.351563zm0 0" fill="#ef4242" data-original="#000000" style="" class=""></path><path xmlns="http://www.w3.org/2000/svg" d="m394.578125 418c-5.164063 0-9.347656-4.183594-9.347656-9.351562v-20.960938c0-5.167969 4.183593-9.351562 9.347656-9.351562s9.351563 4.183593 9.351563 9.351562v20.960938c0 5.167968-4.183594 9.351562-9.351563 9.351562zm0 0" fill="#ef4242" data-original="#000000" style="" class=""></path><path xmlns="http://www.w3.org/2000/svg" d="m394.578125 475.265625c-5.164063 0-9.347656-4.183594-9.347656-9.351563v-20.957031c0-5.164062 4.183593-9.351562 9.347656-9.351562s9.351563 4.1875 9.351563 9.351562v20.960938c0 5.164062-4.183594 9.347656-9.351563 9.347656zm0 0" fill="#ef4242" data-original="#000000" style="" class=""></path><path xmlns="http://www.w3.org/2000/svg" d="m394.578125 533.433594c-5.164063 0-9.347656-4.1875-9.347656-9.351563v-20.960937c0-5.164063 4.183593-9.351563 9.347656-9.351563s9.351563 4.1875 9.351563 9.351563v20.960937c0 5.164063-4.183594 9.351563-9.351563 9.351563zm0 0" fill="#ef4242" data-original="#000000" style="" class=""></path><path xmlns="http://www.w3.org/2000/svg" d="m151.0625 423.875c-5.164062 0-9.347656-4.1875-9.347656-9.351562v-13.183594c0-5.160156 4.183594-9.351563 9.347656-9.351563s9.347656 4.183594 9.347656 9.351563v13.183594c0 5.164062-4.183594 9.351562-9.347656 9.351562zm0 0" fill="#ef4242" data-original="#000000" style="" class=""></path><path xmlns="http://www.w3.org/2000/svg" d="m194.804688 423.875c-5.164063 0-9.351563-4.1875-9.351563-9.351562v-13.183594c0-5.160156 4.1875-9.351563 9.351563-9.351563 5.160156 0 9.351562 4.183594 9.351562 9.351563v13.183594c0 5.164062-4.191406 9.351562-9.351562 9.351562zm0 0" fill="#ef4242" data-original="#000000" style="" class=""></path><path xmlns="http://www.w3.org/2000/svg" d="m238.546875 423.875c-5.164063 0-9.351563-4.1875-9.351563-9.351562v-13.183594c0-5.160156 4.1875-9.351563 9.351563-9.351563s9.347656 4.183594 9.347656 9.351563v13.183594c0 5.164062-4.183593 9.351562-9.347656 9.351562zm0 0" fill="#ef4242" data-original="#000000" style="" class=""></path><path xmlns="http://www.w3.org/2000/svg" d="m151.0625 474.363281c-5.164062 0-9.347656-4.1875-9.347656-9.351562v-13.183594c0-5.160156 4.183594-9.351563 9.347656-9.351563s9.347656 4.183594 9.347656 9.351563v13.183594c0 5.160156-4.183594 9.351562-9.347656 9.351562zm0 0" fill="#ef4242" data-original="#000000" style="" class=""></path><path xmlns="http://www.w3.org/2000/svg" d="m194.804688 474.363281c-5.164063 0-9.351563-4.1875-9.351563-9.351562v-13.183594c0-5.160156 4.1875-9.351563 9.351563-9.351563 5.160156 0 9.351562 4.183594 9.351562 9.351563v13.183594c0 5.160156-4.191406 9.351562-9.351562 9.351562zm0 0" fill="#ef4242" data-original="#000000" style="" class=""></path><path xmlns="http://www.w3.org/2000/svg" d="m238.546875 474.363281c-5.164063 0-9.351563-4.1875-9.351563-9.351562v-13.183594c0-5.160156 4.1875-9.351563 9.351563-9.351563s9.347656 4.183594 9.347656 9.351563v13.183594c0 5.160156-4.183593 9.351562-9.347656 9.351562zm0 0" fill="#ef4242" data-original="#000000" style="" class=""></path><path xmlns="http://www.w3.org/2000/svg" d="m104.339844 213.386719h-54.878906c-5.160157 0-9.347657 4.183593-9.347657 9.34375 0 5.167969 4.1875 9.351562 9.347657 9.351562h54.878906c5.160156 0 9.347656-4.183593 9.347656-9.351562 0-5.164063-4.1875-9.34375-9.347656-9.34375zm0 0" fill="#ef4242" data-original="#000000" style="" class=""></path><path xmlns="http://www.w3.org/2000/svg" d="m154.691406 213.386719h-14.144531c-5.160156 0-9.34375 4.183593-9.34375 9.34375 0 5.167969 4.183594 9.351562 9.34375 9.351562h14.144531c5.160156 0 9.347656-4.183593 9.347656-9.351562 0-5.164063-4.1875-9.34375-9.347656-9.34375zm0 0" fill="#ef4242" data-original="#000000" style="" class=""></path><path xmlns="http://www.w3.org/2000/svg" d="m104.339844 260.789062h-54.878906c-5.160157 0-9.347657 4.183594-9.347657 9.34375 0 5.167969 4.1875 9.351563 9.347657 9.351563h54.878906c5.160156 0 9.347656-4.183594 9.347656-9.351563 0-5.160156-4.1875-9.34375-9.347656-9.34375zm0 0" fill="#ef4242" data-original="#000000" style="" class=""></path><path xmlns="http://www.w3.org/2000/svg" d="m154.691406 260.789062h-14.144531c-5.160156 0-9.34375 4.183594-9.34375 9.34375 0 5.167969 4.183594 9.351563 9.34375 9.351563h14.144531c5.160156 0 9.347656-4.183594 9.347656-9.351563 0-5.160156-4.1875-9.34375-9.347656-9.34375zm0 0" fill="#ef4242" data-original="#000000" style="" class=""></path><path xmlns="http://www.w3.org/2000/svg" d="m104.339844 308.183594h-54.878906c-5.160157 0-9.347657 4.1875-9.347657 9.351562 0 5.167969 4.1875 9.351563 9.347657 9.351563h54.878906c5.160156 0 9.347656-4.183594 9.347656-9.351563 0-5.160156-4.1875-9.351562-9.347656-9.351562zm0 0" fill="#ef4242" data-original="#000000" style="" class=""></path><path xmlns="http://www.w3.org/2000/svg" d="m154.691406 308.183594h-14.144531c-5.160156 0-9.34375 4.1875-9.34375 9.351562 0 5.167969 4.183594 9.351563 9.34375 9.351563h14.144531c5.160156 0 9.347656-4.183594 9.347656-9.351563 0-5.160156-4.1875-9.351562-9.347656-9.351562zm0 0" fill="#ef4242" data-original="#000000" style="" class=""></path></g></svg>
