<svg xmlns="http://www.w3.org/2000/svg" xmlns:xlink="http://www.w3.org/1999/xlink" xmlns:svgjs="http://svgjs.com/svgjs" width="512" height="512" x="0" y="0" viewBox="0 0 512 512" style="enable-background:new 0 0 512 512" xml:space="preserve" class=""><g><g xmlns="http://www.w3.org/2000/svg"><g><path d="m115.667 168.654h22.257c4.136 0 7.489-3.353 7.489-7.489s-3.353-7.489-7.489-7.489h-22.257c-4.136 0-7.489 3.352-7.489 7.489s3.353 7.489 7.489 7.489z" fill="#ef4242" data-original="#000000" style="" class=""></path><path d="m180.505 168.654h153.83c4.136 0 7.489-3.353 7.489-7.489s-3.353-7.489-7.489-7.489h-153.83c-4.136 0-7.489 3.352-7.489 7.489s3.353 7.489 7.489 7.489z" fill="#ef4242" data-original="#000000" style="" class=""></path><path d="m115.667 208.745h22.257c4.136 0 7.489-3.353 7.489-7.489s-3.353-7.489-7.489-7.489h-22.257c-4.136 0-7.489 3.353-7.489 7.489.001 4.137 3.353 7.489 7.489 7.489z" fill="#ef4242" data-original="#000000" style="" class=""></path><path d="m180.505 208.745h153.83c4.136 0 7.489-3.353 7.489-7.489s-3.353-7.489-7.489-7.489h-153.83c-4.136 0-7.489 3.353-7.489 7.489 0 4.137 3.353 7.489 7.489 7.489z" fill="#ef4242" data-original="#000000" style="" class=""></path><path d="m115.667 248.837h22.257c4.136 0 7.489-3.353 7.489-7.489s-3.353-7.489-7.489-7.489h-22.257c-4.136 0-7.489 3.353-7.489 7.489.001 4.136 3.353 7.489 7.489 7.489z" fill="#ef4242" data-original="#000000" style="" class=""></path><path d="m180.505 248.837h153.83c4.136 0 7.489-3.353 7.489-7.489s-3.353-7.489-7.489-7.489h-153.83c-4.136 0-7.489 3.353-7.489 7.489s3.353 7.489 7.489 7.489z" fill="#ef4242" data-original="#000000" style="" class=""></path><path d="m115.667 288.928h22.257c4.136 0 7.489-3.353 7.489-7.489s-3.353-7.489-7.489-7.489h-22.257c-4.136 0-7.489 3.353-7.489 7.489.001 4.137 3.353 7.489 7.489 7.489z" fill="#ef4242" data-original="#000000" style="" class=""></path><path d="m180.505 288.928h153.83c4.136 0 7.489-3.353 7.489-7.489s-3.353-7.489-7.489-7.489h-153.83c-4.136 0-7.489 3.353-7.489 7.489 0 4.137 3.353 7.489 7.489 7.489z" fill="#ef4242" data-original="#000000" style="" class=""></path><path d="m115.667 329.02h22.257c4.136 0 7.489-3.353 7.489-7.489s-3.353-7.489-7.489-7.489h-22.257c-4.136 0-7.489 3.353-7.489 7.489.001 4.136 3.353 7.489 7.489 7.489z" fill="#ef4242" data-original="#000000" style="" class=""></path><path d="m180.505 329.02h123.366c4.136 0 7.489-3.353 7.489-7.489s-3.353-7.489-7.489-7.489h-123.366c-4.136 0-7.489 3.353-7.489 7.489s3.353 7.489 7.489 7.489z" fill="#ef4242" data-original="#000000" style="" class=""></path><path d="m115.667 369.112h22.257c4.136 0 7.489-3.352 7.489-7.489s-3.353-7.489-7.489-7.489h-22.257c-4.136 0-7.489 3.353-7.489 7.489s3.353 7.489 7.489 7.489z" fill="#ef4242" data-original="#000000" style="" class=""></path><path d="m180.505 369.112h82.721c4.136 0 7.489-3.352 7.489-7.489s-3.353-7.489-7.489-7.489h-82.721c-4.136 0-7.489 3.353-7.489 7.489s3.353 7.489 7.489 7.489z" fill="#ef4242" data-original="#000000" style="" class=""></path><path d="m115.667 409.203h22.257c4.136 0 7.489-3.353 7.489-7.489s-3.353-7.489-7.489-7.489h-22.257c-4.136 0-7.489 3.352-7.489 7.489.001 4.137 3.353 7.489 7.489 7.489z" fill="#ef4242" data-original="#000000" style="" class=""></path><path d="m180.505 409.203h61.683c4.136 0 7.489-3.353 7.489-7.489s-3.353-7.489-7.489-7.489h-61.683c-4.136 0-7.489 3.352-7.489 7.489s3.353 7.489 7.489 7.489z" fill="#ef4242" data-original="#000000" style="" class=""></path><path d="m115.667 449.295h22.257c4.136 0 7.489-3.352 7.489-7.489s-3.353-7.489-7.489-7.489h-22.257c-4.136 0-7.489 3.353-7.489 7.489s3.353 7.489 7.489 7.489z" fill="#ef4242" data-original="#000000" style="" class=""></path><path d="m180.505 449.295h54.658c4.136 0 7.489-3.352 7.489-7.489s-3.353-7.489-7.489-7.489h-54.658c-4.136 0-7.489 3.353-7.489 7.489s3.353 7.489 7.489 7.489z" fill="#ef4242" data-original="#000000" style="" class=""></path></g><g><path d="m455.718 370.123c-.385-6.01-3.087-11.51-7.609-15.488-4.522-3.976-10.32-5.951-16.331-5.571-6.01.385-11.511 3.087-15.488 7.61l-4.75 5.399c-9.031-7.504-19.636-13.175-31.245-16.427v-257.023c0-12.471-10.146-22.618-22.618-22.618h-57.713v-11.426c0-7.466-6.05-13.54-13.485-13.54h-30.879v-3.426c.001-20.74-16.748-37.613-37.335-37.613s-37.335 16.873-37.335 37.613v3.426h-30.879c-7.436 0-13.486 6.074-13.486 13.54v11.426h-57.712c-12.472 0-22.618 10.147-22.618 22.618v58.791c0 4.136 3.353 7.489 7.489 7.489s7.489-3.353 7.489-7.489v-58.791c0-4.213 3.427-7.641 7.64-7.641h57.713v11.426c0 7.466 6.05 13.541 13.486 13.541h136.428c7.436 0 13.485-6.075 13.485-13.541v-11.426h57.713c4.213 0 7.64 3.427 7.64 7.641v254.252c-2.587-.239-5.204-.377-7.853-.377-12.106 0-23.801 2.501-34.759 7.435-3.771 1.698-5.452 6.131-3.754 9.903 1.698 3.771 6.131 5.454 9.903 3.754 9.012-4.057 18.638-6.115 28.61-6.115 16.76 0 32.153 5.946 44.194 15.832l-36.435 41.421-13.26-15.471c-3.919-4.572-9.384-7.345-15.389-7.808-6-.455-11.83 1.443-16.401 5.362-9.439 8.089-10.536 22.35-2.446 31.79l30.158 35.184c4.253 4.962 10.44 7.832 17.021 7.873h.097c6.48 0 12.65-2.79 16.928-7.655l44.023-50.048c.839 4.304 1.283 8.747 1.283 13.294 0 38.474-31.3 69.774-69.774 69.774s-69.773-31.3-69.773-69.774c0-16.362 5.778-32.268 16.269-44.788 2.656-3.17 2.24-7.893-.93-10.55-3.171-2.658-7.894-2.241-10.55.929-12.747 15.211-19.767 34.533-19.767 54.408 0 28.909 14.559 54.471 36.719 69.774h-230.579c-4.213 0-7.64-3.428-7.64-7.641v-307.786c0-4.136-3.353-7.489-7.489-7.489s-7.489 3.353-7.489 7.489v307.786c0 12.472 10.146 22.619 22.618 22.619h278.614c46.732 0 84.752-38.02 84.752-84.751 0-9.369-1.554-18.375-4.377-26.804l12.306-13.99c3.977-4.523 5.955-10.323 5.57-16.332zm-170.73-279.152h-133.445v-34.955h36.876c4.136 0 7.489-3.353 7.489-7.489v-10.914c0-12.481 10.029-22.635 22.358-22.635 12.328 0 22.358 10.154 22.358 22.635v10.915c0 4.136 3.353 7.489 7.489 7.489h36.876v34.954zm153.914 285.592s-68.208 77.542-68.214 77.548c-3.193 3.63-8.311 3.557-11.428-.074-.009-.011-30.157-35.184-30.157-35.184-2.716-3.168-2.348-7.955.821-10.672 3.341-2.864 7.776-2.439 10.67.822l18.873 22.019c1.412 1.647 3.468 2.602 5.638 2.615 2.197.034 4.238-.914 5.671-2.543l56.761-64.529c1.335-1.518 3.181-2.425 5.198-2.554 2.014-.127 3.964.535 5.482 1.87s2.425 3.181 2.554 5.198c.13 2.019-.535 3.965-1.869 5.484z" fill="#ef4242" data-original="#000000" style="" class=""></path></g></g></g></svg>
